<svg width="128" height="128" viewBox="0 0 128 128" fill="none" xmlns="http://www.w3.org/2000/svg">
<g clip-path="url(#clip0_196_67)">
<rect width="128" height="128" fill="white"/>
<path d="M102.963 91.427L70.4638 74.1535C65.451 72.0951 66.7633 80.3821 68.5053 85.5135L77.7554 112.762C79.2783 118.713 82.3278 119.739 87.9727 117.25C97.4973 112.764 102.635 109.232 106.6 98.5468C107.378 93.8194 106.196 92.9841 102.963 91.427Z" fill="#F48500"/>
<path d="M60.7719 108.172L57.2355 74.9008C56.2336 70.075 50.6303 75.1964 47.6193 79.0984L31.7983 99.601C28.081 103.712 28.862 106.538 33.6214 109.594C41.869 114.606 47.1575 116.758 57.2501 114.469C61.2174 112.714 61.2451 111.402 60.7719 108.172Z" fill="#43A047"/>
<path d="M23.825 79.0505L52.852 63.0987C56.8777 60.3375 50.141 57.1081 45.4368 55.8042L21.0371 49.0408C15.9313 47.1774 13.641 48.9763 12.5977 54.5341C11.0468 64.0576 11.0207 69.7592 16.7985 78.2013C19.8487 81.1938 21.0553 80.7188 23.825 79.0505Z" fill="#CF2C91"/>
<path d="M35.2404 34.2266L56.1485 52.3967C59.479 54.7581 60.0664 48.5378 59.7302 44.469L57.9863 23.3655C57.973 18.8199 55.8994 17.5424 51.2361 18.3299C43.3138 19.8651 38.8317 21.4924 33.8761 28.4668C32.4092 31.7254 33.1307 32.535 35.2404 34.2266Z" fill="#1F80FF"/>
<path d="M78.2667 17.9686L65.9532 49.3863C64.6067 54.1658 72.0294 51.999 76.4982 49.8339L100.5 38.2054C105.782 36.1215 106.393 33.2443 103.509 28.4402C98.3799 20.3687 94.5955 16.1475 84.3911 13.8363C79.9814 13.6957 79.344 14.863 78.2667 17.9686Z" fill="#43A047"/>
</g>
<defs>
<clipPath id="clip0_196_67">
<rect width="128" height="128" fill="white"/>
</clipPath>
</defs>
</svg>
