<svg width="16" height="16" viewBox="0 0 16 16" fill="none" xmlns="http://www.w3.org/2000/svg">
<rect width="16" height="16" fill="white"/>
<path d="M11.9438 10.9381L8.67966 9.20316C8.1762 8.99641 8.308 9.82874 8.48296 10.3441L9.41201 13.0808C9.56496 13.6785 9.87124 13.7816 10.4382 13.5316C11.3948 13.0811 11.9108 12.7263 12.309 11.6531C12.3872 11.1783 12.2685 11.0944 11.9438 10.9381Z" fill="#F48500"/>
<path d="M7.70633 12.6199L7.35114 9.27817C7.25052 8.79348 6.68774 9.30786 6.38532 9.69977L4.79631 11.759C4.42296 12.1718 4.5014 12.4557 4.97942 12.7626C5.80778 13.266 6.33894 13.4822 7.35261 13.2523C7.75107 13.0761 7.75386 12.9442 7.70633 12.6199Z" fill="#43A047"/>
<path d="M3.99553 9.695L6.91091 8.09284C7.31524 7.81552 6.63863 7.49118 6.16615 7.36021L3.71552 6.68092C3.20271 6.49377 2.97269 6.67444 2.8679 7.23265C2.71213 8.18916 2.70951 8.76181 3.28982 9.60971C3.59617 9.91026 3.71735 9.86256 3.99553 9.695Z" fill="#CF2C91"/>
<path d="M5.14203 5.19302L7.24198 7.01797C7.57647 7.25514 7.63548 6.63039 7.60171 6.22174L7.42656 4.10216C7.42523 3.64562 7.21696 3.51731 6.74859 3.5964C5.9529 3.7506 5.50273 3.91404 5.00501 4.61452C4.85767 4.94181 4.93013 5.02313 5.14203 5.19302Z" fill="#1F80FF"/>
<path d="M9.4635 3.5601L8.22677 6.7156C8.09154 7.19564 8.83705 6.97801 9.28588 6.76056L11.6965 5.59262C12.2271 5.38332 12.2884 5.09435 11.9988 4.61184C11.4836 3.80116 11.1035 3.3772 10.0786 3.14507C9.63572 3.13094 9.57171 3.24818 9.4635 3.5601Z" fill="#43A047"/>
</svg>
