<svg width="24" height="24" viewBox="0 0 24 24" fill="none" xmlns="http://www.w3.org/2000/svg">
<g clip-path="url(#clip0_196_46)">
<rect width="24" height="24" fill="white"/>
<path d="M18.8784 16.2652L13.5459 13.431C12.7234 13.0932 12.9387 14.4529 13.2246 15.2949L14.7423 19.7657C14.9922 20.7421 15.4925 20.9104 16.4187 20.5021C17.9815 19.7661 18.8244 19.1865 19.475 17.4334C19.6026 16.6577 19.4087 16.5206 18.8784 16.2652Z" fill="#F48500"/>
<path d="M11.9557 19.0127L11.3755 13.5536C11.2111 12.7618 10.2917 13.6021 9.79766 14.2424L7.20179 17.6064C6.59187 18.2808 6.72003 18.7446 7.50094 19.2459C8.85416 20.0684 9.72189 20.4214 11.3779 20.0459C12.0288 19.758 12.0334 19.5426 11.9557 19.0127Z" fill="#43A047"/>
<path d="M5.89353 14.2345L10.6562 11.6171C11.3167 11.1641 10.2114 10.6342 9.43952 10.4203L5.43609 9.31055C4.59835 9.00482 4.22256 9.29997 4.05138 10.2119C3.79692 11.7745 3.79263 12.71 4.74064 14.0951C5.24111 14.5861 5.43908 14.5082 5.89353 14.2345Z" fill="#CF2C91"/>
<path d="M7.76658 6.87995L11.1971 9.86126C11.7436 10.2487 11.84 9.2281 11.7848 8.56051L11.4987 5.09789C11.4965 4.35207 11.1563 4.14246 10.3911 4.27167C9.09124 4.52357 8.35583 4.79057 7.54274 5.9349C7.30204 6.46957 7.42042 6.60241 7.76658 6.87995Z" fill="#1F80FF"/>
<path d="M14.8263 4.21228L12.8059 9.36721C12.585 10.1514 13.8029 9.79589 14.5361 9.44066L18.4743 7.53268C19.3409 7.19075 19.4412 6.71867 18.968 5.93044C18.1264 4.60608 17.5055 3.91348 15.8312 3.53426C15.1076 3.51119 15.0031 3.70272 14.8263 4.21228Z" fill="#43A047"/>
</g>
<defs>
<clipPath id="clip0_196_46">
<rect width="24" height="24" fill="white"/>
</clipPath>
</defs>
</svg>
