<svg width="256" height="256" viewBox="0 0 256 256" fill="none" xmlns="http://www.w3.org/2000/svg">
<g clip-path="url(#clip0_196_74)">
<rect width="256" height="256" fill="white"/>
<path d="M209.74 185.805L141.515 149.543C130.993 145.222 133.747 162.619 137.404 173.391L156.822 230.591C160.019 243.083 166.421 245.237 178.271 240.013C198.265 230.596 209.049 223.181 217.373 200.751C219.007 190.827 216.525 189.073 209.74 185.805Z" fill="#F48500"/>
<path d="M121.17 220.956L113.746 151.112C111.643 140.981 99.8801 151.732 93.5593 159.923L60.3473 202.963C52.5438 211.592 54.1834 217.526 64.1745 223.94C81.488 234.463 92.5898 238.979 113.777 234.175C122.105 230.491 122.163 227.735 121.17 220.956Z" fill="#43A047"/>
<path d="M43.6096 159.823L104.544 126.337C112.995 120.54 98.8531 113.761 88.9778 111.024L37.757 96.8259C27.0388 92.9143 22.231 96.6905 20.0408 108.358C16.7852 128.35 16.7303 140.319 28.8594 158.041C35.2624 164.323 37.7953 163.326 43.6096 159.823Z" fill="#CF2C91"/>
<path d="M67.5733 65.7277L111.464 103.871C118.456 108.828 119.689 95.7703 118.983 87.229L115.322 42.9276C115.294 33.3855 110.941 30.7036 101.152 32.3567C84.5212 35.5796 75.1122 38.9957 64.7093 53.6365C61.6298 60.4771 63.1444 62.1767 67.5733 65.7277Z" fill="#1F80FF"/>
<path d="M157.895 31.5982L132.046 97.5514C129.22 107.585 144.802 103.036 154.183 98.491L204.568 74.08C215.657 69.7054 216.939 63.6655 210.885 53.5806C200.118 36.6366 192.173 27.7753 170.752 22.9235C161.495 22.6283 160.157 25.0787 157.895 31.5982Z" fill="#43A047"/>
</g>
<defs>
<clipPath id="clip0_196_74">
<rect width="256" height="256" fill="white"/>
</clipPath>
</defs>
</svg>
