<svg width="32" height="32" viewBox="0 0 32 32" fill="none" xmlns="http://www.w3.org/2000/svg">
<g clip-path="url(#clip0_196_53)">
<rect width="32" height="32" fill="white"/>
<path d="M25.4931 22.825L17.7001 18.683C16.4981 18.1894 16.8127 20.1765 17.2304 21.407L19.4485 27.9408C19.8137 29.3678 20.5449 29.6138 21.8985 29.0171C24.1824 27.9414 25.4143 27.0944 26.3651 24.5322C26.5517 23.3987 26.2682 23.1984 25.4931 22.825Z" fill="#F48500"/>
<path d="M15.376 26.8403L14.528 18.8621C14.2878 17.7049 12.9442 18.933 12.2222 19.8687L8.42845 24.785C7.53708 25.7706 7.72437 26.4484 8.86563 27.1811C10.8433 28.383 12.1114 28.899 14.5315 28.3501C15.4828 27.9294 15.4895 27.6146 15.376 26.8403Z" fill="#43A047"/>
<path d="M6.51655 19.8572L13.4769 16.0321C14.4422 15.37 12.8268 14.5957 11.6988 14.283L5.84803 12.6612C4.62372 12.2144 4.07453 12.6457 3.82436 13.9784C3.45248 16.2621 3.4462 17.6292 4.83167 19.6536C5.56308 20.3711 5.8524 20.2572 6.51655 19.8572Z" fill="#CF2C91"/>
<path d="M9.2539 9.10907L14.2674 13.4661C15.066 14.0323 15.2069 12.5407 15.1263 11.5651L14.7081 6.5047C14.7049 5.41472 14.2077 5.10839 13.0895 5.29722C11.1898 5.66536 10.1151 6.05556 8.92677 7.72793C8.57501 8.50932 8.74801 8.70346 9.2539 9.10907Z" fill="#1F80FF"/>
<path d="M19.5712 5.21025L16.6186 12.7439C16.2957 13.89 18.0756 13.3704 19.1471 12.8512L24.9025 10.0628C26.1691 9.56312 26.3156 8.8732 25.624 7.72124C24.3941 5.78578 23.4867 4.77358 21.0398 4.21938C19.9824 4.18566 19.8295 4.46556 19.5712 5.21025Z" fill="#43A047"/>
</g>
<defs>
<clipPath id="clip0_196_53">
<rect width="32" height="32" fill="white"/>
</clipPath>
</defs>
</svg>
