<svg width="512" height="512" viewBox="0 0 512 512" fill="none" xmlns="http://www.w3.org/2000/svg">
<g clip-path="url(#clip0_196_81)">
<rect width="512" height="512" fill="white"/>
<path d="M404.499 367.675L271.325 296.894C250.784 288.459 256.162 322.417 263.3 343.443L301.204 455.098C307.444 479.483 319.94 483.687 343.071 473.49C382.1 455.108 403.151 440.634 419.399 396.85C422.587 377.479 417.744 374.056 404.499 367.675Z" fill="#F48500"/>
<path d="M231.61 436.291L217.119 299.955C213.014 280.18 190.053 301.166 177.715 317.156L112.885 401.169C97.6529 418.013 100.853 429.596 120.356 442.115C154.152 462.655 175.822 471.472 217.179 462.093C233.436 454.904 233.549 449.524 231.61 436.291Z" fill="#43A047"/>
<path d="M80.2133 316.96L199.157 251.594C215.653 240.28 188.048 227.047 168.772 221.704L68.7892 193.99C47.8672 186.354 38.4824 193.725 34.2072 216.499C27.8522 255.524 27.745 278.887 51.421 313.481C63.9197 325.743 68.8639 323.796 80.2133 316.96Z" fill="#CF2C91"/>
<path d="M126.99 133.286L212.665 207.741C226.312 217.418 228.72 191.929 227.342 175.256L220.196 88.7804C220.142 70.1542 211.644 64.9193 192.536 68.1461C160.073 74.4372 141.706 81.1053 121.4 109.684C115.389 123.037 118.345 126.355 126.99 133.286Z" fill="#1F80FF"/>
<path d="M303.298 66.6653L252.842 195.406C247.324 214.991 277.74 206.111 296.052 197.24L394.403 149.59C416.048 141.05 418.552 129.261 406.734 109.575C385.716 76.5003 370.209 59.2032 328.395 49.7325C310.325 49.1563 307.713 53.9395 303.298 66.6653Z" fill="#43A047"/>
</g>
<defs>
<clipPath id="clip0_196_81">
<rect width="512" height="512" fill="white"/>
</clipPath>
</defs>
</svg>
