<svg width="64" height="64" viewBox="0 0 64 64" fill="none" xmlns="http://www.w3.org/2000/svg">
<g clip-path="url(#clip0_196_60)">
<rect width="64" height="64" fill="white"/>
<path d="M53.5902 45.2086L35.8167 35.762C33.0753 34.6363 33.793 39.1684 34.7456 41.9746L39.8044 56.8761C40.6372 60.1307 42.3049 60.6917 45.3921 59.3308C50.6009 56.8775 53.4104 54.9458 55.5788 49.1023C56.0044 46.517 55.358 46.0601 53.5902 45.2086Z" fill="#F48500"/>
<path d="M30.5164 54.3662L28.5824 36.1706C28.0345 33.5314 24.9702 36.3322 23.3235 38.4662L14.6712 49.6787C12.6383 51.9267 13.0654 53.4726 15.6683 55.1435C20.1787 57.8848 23.0709 59.0615 28.5904 57.8097C30.76 56.8502 30.7752 56.1322 30.5164 54.3662Z" fill="#43A047"/>
<path d="M10.3107 38.44L26.1851 29.7162C28.3867 28.2062 24.7025 26.4401 22.1299 25.7269L8.78605 22.0282C5.99378 21.0091 4.74127 21.9929 4.1707 25.0324C3.32254 30.2406 3.30824 33.3587 6.46806 37.9756C8.13616 39.6121 8.79602 39.3524 10.3107 38.44Z" fill="#CF2C91"/>
<path d="M16.5536 13.9265L27.9879 23.8635C29.8093 25.1549 30.1305 21.7531 29.9467 19.528L28.993 7.98677C28.9857 5.50088 27.8517 4.80223 25.3014 5.23289C20.9688 6.0725 18.5176 6.96243 15.8075 10.7766C15.0052 12.5587 15.3998 13.0015 16.5536 13.9265Z" fill="#1F80FF"/>
<path d="M40.0841 5.03531L33.35 22.2172C32.6137 24.831 36.673 23.646 39.1169 22.462L52.2431 16.1025C55.1318 14.9628 55.4659 13.3894 53.8887 10.7621C51.0837 6.34791 49.014 4.0394 43.4334 2.77543C41.0218 2.69853 40.6733 3.3369 40.0841 5.03531Z" fill="#43A047"/>
</g>
<defs>
<clipPath id="clip0_196_60">
<rect width="64" height="64" fill="white"/>
</clipPath>
</defs>
</svg>
