<svg width="40" height="40" viewBox="0 0 40 40" fill="none" xmlns="http://www.w3.org/2000/svg">
<g clip-path="url(#clip0_1222_1183)">
<mask id="mask0_1222_1183" style="mask-type:luminance" maskUnits="userSpaceOnUse" x="0" y="0" width="40" height="40">
<path d="M40 0H0V40H40V0Z" fill="white"/>
</mask>
<g mask="url(#mask0_1222_1183)">
<path d="M40 20C40 23.9556 38.827 27.8224 36.6294 31.1114C34.4318 34.4004 31.3082 36.9638 27.6537 38.4776C23.9992 39.9913 19.9778 40.3874 16.0982 39.6157C12.2186 38.844 8.65492 36.9392 5.85787 34.1421C3.06082 31.3451 1.15601 27.7814 0.384303 23.9018C-0.387401 20.0222 0.00866568 16.0009 1.52242 12.3463C3.03617 8.69181 5.59962 5.56824 8.8886 3.37061C12.1776 1.17298 16.0444 0 20 0C25.3043 0 30.3914 2.10714 34.1421 5.85786C37.8929 9.60859 40 14.6957 40 20ZM2.58301 20C2.58301 23.4448 3.6045 26.8122 5.5183 29.6764C7.43211 32.5406 10.1523 34.773 13.3348 36.0912C16.5174 37.4095 20.0193 37.7544 23.3979 37.0823C26.7765 36.4103 29.8799 34.7515 32.3157 32.3157C34.7515 29.8799 36.4103 26.7765 37.0823 23.3979C37.7544 20.0193 37.4095 16.5173 36.0912 13.3348C34.773 10.1523 32.5406 7.4321 29.6764 5.51829C26.8122 3.60449 23.4448 2.583 20 2.583C15.3807 2.583 10.9507 4.418 7.68433 7.68432C4.41801 10.9506 2.58301 15.3807 2.58301 20Z" fill="black" fill-opacity="0.6"/>
</g>
</g>
<defs>
<clipPath id="clip0_1222_1183">
<rect width="40" height="40" fill="white"/>
</clipPath>
</defs>
</svg>
