<svg xmlns="http://www.w3.org/2000/svg" width="16" height="18.446" viewBox="0 0 16 18.446">
  <g id="_7548792_user_interface_remove_delete_trash_icon" data-name="7548792_user_interface_remove_delete_trash_icon" transform="translate(-2.556 -0.5)">
    <path id="Path_206" data-name="Path 206" d="M2.556,4.569a.893.893,0,0,0,.893.893h.477V16.009a2.941,2.941,0,0,0,2.937,2.937h7.388a2.941,2.941,0,0,0,2.937-2.937V5.461h.477a.893.893,0,1,0,0-1.785H14.539v-.92A2.258,2.258,0,0,0,12.284.5H8.827A2.258,2.258,0,0,0,6.572,2.756v.92H3.448A.893.893,0,0,0,2.556,4.569Zm5.8-1.813a.471.471,0,0,1,.47-.471h3.456a.471.471,0,0,1,.47.471v.92h-4.4v-.92ZM5.71,5.461H15.4V16.009a1.154,1.154,0,0,1-1.152,1.152H6.862A1.154,1.154,0,0,1,5.71,16.009V5.461Z" transform="translate(0)" fill="#222"/>
    <path id="Path_207" data-name="Path 207" d="M11.665,20.013a.893.893,0,0,0,.893-.893V12.493a.893.893,0,1,0-1.785,0V19.12A.893.893,0,0,0,11.665,20.013Z" transform="translate(-3.327 -4.495)" fill="#222"/>
    <path id="Path_208" data-name="Path 208" d="M19.12,20.013a.893.893,0,0,0,.893-.893V12.493a.893.893,0,1,0-1.785,0V19.12A.893.893,0,0,0,19.12,20.013Z" transform="translate(-6.346 -4.495)" fill="#222"/>
  </g>
</svg>
