<svg id="Group_2150" data-name="Group 2150" xmlns="http://www.w3.org/2000/svg" width="40" height="40" viewBox="0 0 40 40">
  <circle id="Ellipse_114" data-name="Ellipse 114" cx="20" cy="20" r="20" fill="#52b80e" opacity="0.2"/>
  <path id="social-facebook" d="M21.548,5.04H6A.965.965,0,0,0,5.04,6V21.549A.965.965,0,0,0,6,22.513h8.368V15.746H12.1V13.11h2.277V11.165a3.177,3.177,0,0,1,3.391-3.486,18.631,18.631,0,0,1,2.035.1v2.359H18.4c-1.095,0-1.307.52-1.307,1.283V13.11h2.611l-.34,2.637H17.1v6.766h4.452a.965.965,0,0,0,.963-.965V6A.965.965,0,0,0,21.548,5.04Z" transform="translate(6.224 6.561)" fill="#52b80e"/>
</svg>
