<svg xmlns="http://www.w3.org/2000/svg" width="40" height="40" viewBox="0 0 40 40">
  <g id="Group_2285" data-name="Group 2285" transform="translate(0 0.451)">
    <circle id="Ellipse_113" data-name="Ellipse 113" cx="20" cy="20" r="20" transform="translate(0 -0.451)" fill="#52b80e" opacity="0.2"/>
    <g id="mail" transform="translate(11.264 14.237)">
      <path id="Path_256" data-name="Path 256" d="M21.032,7.268H4.72a.581.581,0,0,0-.58.581V9.016a.2.2,0,0,0,.106.141l8.574,4.9a.145.145,0,0,0,.146,0l8.315-4.892c.047-.026.171-.1.217-.127s.114-.073.114-.142V7.849a.581.581,0,0,0-.58-.58Z" transform="translate(-4.14 -7.268)" fill="#52b80e"/>
      <path id="Path_257" data-name="Path 257" d="M28.857,12.822a.146.146,0,0,0-.146,0l-4.705,2.768a.144.144,0,0,0-.033.224l4.706,5.073a.145.145,0,0,0,.251-.1V12.947a.145.145,0,0,0-.072-.126Z" transform="translate(-11.458 -9.314)" fill="#52b80e"/>
      <path id="Path_258" data-name="Path 258" d="M15.46,18.674a.144.144,0,0,0-.18-.026l-1.886,1.11a.736.736,0,0,1-.728.005l-1.66-.948a.145.145,0,0,0-.17.02l-6.3,5.845a.145.145,0,0,0,.026.231A.565.565,0,0,0,4.847,25H20.993a.145.145,0,0,0,.107-.244Z" transform="translate(-4.268 -11.467)" fill="#52b80e"/>
      <path id="Path_259" data-name="Path 259" d="M9.321,16.055a.145.145,0,0,0-.026-.232L4.356,13a.145.145,0,0,0-.216.126v7.4a.144.144,0,0,0,.243.106l4.938-4.581Z" transform="translate(-4.14 -9.381)" fill="#52b80e"/>
    </g>
  </g>
</svg>
