<svg xmlns="http://www.w3.org/2000/svg" width="40" height="40" viewBox="0 0 40 40">
  <g id="Group_2452" data-name="Group 2452" transform="translate(0 -0.458)">
    <circle id="Ellipse_113" data-name="Ellipse 113" cx="20" cy="20" r="20" transform="translate(0 0.458)" fill="#52b80e" opacity="0.2"/>
    <path id="_2d782a4e3e0dc70da4851709d365a676" data-name="2d782a4e3e0dc70da4851709d365a676" d="M10.033,2A8.057,8.057,0,0,0,2,10.033a7.859,7.859,0,0,0,1.848,5.061L2.241,16.7a.777.777,0,0,0,0,1.125.729.729,0,0,0,.562.241h7.23A8.033,8.033,0,0,0,10.033,2ZM6.82,10.837a.8.8,0,0,1,0-1.607.8.8,0,0,1,0,1.607Zm3.213,0a.8.8,0,1,1,.8-.8A.759.759,0,0,1,10.033,10.837Zm3.213,0a.8.8,0,1,1,.8-.8A.759.759,0,0,1,13.246,10.837Z" transform="translate(9.967 9.967)" fill="#52b80e"/>
  </g>
</svg>
