<svg xmlns="http://www.w3.org/2000/svg" width="39" height="39" viewBox="0 0 39 39">
  <g id="Group_2531" data-name="Group 2531" transform="translate(-470 -1120.918)">
    <circle id="Ellipse_113" data-name="Ellipse 113" cx="19.5" cy="19.5" r="19.5" transform="translate(470 1120.918)" fill="#52b80e" opacity="0.2"/>
    <g id="f6a3da0d926e7551c375f56dbf678543" transform="translate(481 1131.458)">
      <path id="Path_429" data-name="Path 429" d="M0,0H18V18H0Z" fill="none"/>
      <path id="Path_430" data-name="Path 430" d="M15.179,12.2l-1.905-.217a1.493,1.493,0,0,0-1.23.428l-1.38,1.38A11.284,11.284,0,0,1,5.722,8.845L7.109,7.457a1.493,1.493,0,0,0,.427-1.23l-.218-1.89A1.5,1.5,0,0,0,5.827,3.01h-1.3a1.488,1.488,0,0,0-1.5,1.552A12.744,12.744,0,0,0,14.947,16.48a1.488,1.488,0,0,0,1.553-1.5v-1.3A1.486,1.486,0,0,0,15.179,12.2Z" transform="translate(-0.757 -0.752)" fill="#52b80e"/>
    </g>
  </g>
</svg>
