<svg width="54" height="30" viewBox="0 0 54 30" fill="none" xmlns="http://www.w3.org/2000/svg">
<path d="M2.12995 21.0671V13.7863H0V26.1501H2.12995V23.6214L3.301 22.4333L5.86372 26.1671L8.30765 26.1586L4.70965 20.9568L8.29916 17.2739H5.72795L2.12995 21.0671ZM10.497 16.3744C11.2098 16.3744 11.7869 15.7974 11.7869 15.0846C11.7869 14.3633 11.2098 13.7947 10.497 13.7947C9.7757 13.7947 9.20715 14.3718 9.20715 15.0846C9.20715 15.7974 9.7757 16.3744 10.497 16.3744ZM37.3123 18.9796C35.997 18.9796 35.2587 19.8876 35.2587 20.9059L35.2502 22.1448V26.1586H33.1203V13.7863H35.2502V18.4195C35.7339 17.7576 36.5656 17.0448 37.8978 17.0618C40.4012 17.0703 41.1819 19.2002 41.1988 20.2185C41.2073 21.2538 41.1988 26.1501 41.1988 26.1501H39.0689V20.8635C39.0604 20.2185 38.5937 18.9796 37.3123 18.9796ZM9.42778 17.2739H11.5577V26.1501H9.42778V17.2739ZM13.0173 17.2739H15.2152L17.4215 23.6129L19.4072 17.2739H21.605L18.1937 26.9478C18.1937 26.9478 17.9985 27.44 17.7524 27.8728C17.4978 28.314 17.1669 28.6789 16.8699 28.9335C16.2759 29.4257 15.0624 29.8669 14.2902 29.8669C12.7288 29.8669 12.4233 29.5954 12.4233 29.5954V27.9576C12.4233 27.9576 13.2464 28.1358 14.2902 28.1358C15.2661 28.1358 16.0977 27.126 16.4286 26.3708L13.0173 17.2739ZM26.6286 17.0448C23.8707 17.0448 21.8935 19.1578 21.8935 21.7545C21.8935 24.3511 23.8622 26.4641 26.6286 26.4641C29.395 26.4641 31.4316 24.4615 31.4316 21.8563C31.4316 19.2511 29.3865 17.0448 26.6286 17.0448ZM26.671 24.5803C25.1181 24.5803 24.0235 23.3244 24.0235 21.7714C24.0235 20.2185 25.1266 18.9626 26.671 18.9626C28.2155 18.9626 29.3611 20.2864 29.3611 21.8393C29.3611 23.3922 28.2324 24.5803 26.671 24.5803Z" fill="#484346"/>
<path d="M41.8423 10.4604L39.3697 12.0482C39.709 12.6059 40.109 13.1028 40.5696 13.5513C40.0484 13.7937 39.2121 14.0845 38 14.1936C38.3394 14.4724 39.6605 15.4542 41.7453 15.8057C41.818 15.8178 41.8907 15.83 41.9514 15.8421L43.7816 12.1938C42.9817 11.8058 42.315 11.2119 41.8423 10.4604Z" fill="#CD5A19"/>
<path d="M38.3394 6.37585L41.1272 6.90918C41.3939 5.3577 42.3635 4.04864 43.709 3.35774L42.4605 0.86084C40.3515 1.9396 38.8 3.9638 38.3394 6.37585Z" fill="#F2CB0A"/>
<path d="M51.6361 13.3816C53.0179 11.8909 53.7937 9.9151 53.7937 7.8909C53.7937 7.3091 53.721 6.73942 53.6118 6.19397L50.7755 6.83638C50.8361 7.13941 50.8604 7.44243 50.8604 7.75758C50.8604 9.55148 49.9271 11.1151 48.521 11.9878L50.1452 14.6423C50.6907 14.2787 51.1998 13.8544 51.6361 13.3816Z" fill="#C9D229"/>
<path d="M50.1328 14.6423L48.5086 11.9878C47.7934 12.4363 46.9449 12.703 46.0481 12.715L45.9995 16.0241C46.0601 16.0119 46.1208 16.0119 46.1813 16.0119C47.6964 15.8785 49.0298 15.3816 50.1328 14.6423Z" fill="#A1BF36"/>
<path d="M41.1877 8.89685L38.3877 9.57563C38.5817 10.4604 38.921 11.2967 39.3817 12.0483L41.8422 10.4604C41.5391 9.98772 41.3089 9.46653 41.1877 8.89685ZM45.9875 16.036L46.0482 12.7271H45.9512C45.1754 12.7271 44.4361 12.5453 43.7694 12.2059L41.9392 15.8421C43.7936 16.1695 44.521 16.1815 45.9875 16.036Z" fill="#E3A416"/>
<path d="M41.0544 7.75752C41.0544 7.46662 41.0786 7.17572 41.1271 6.90906L38.3393 6.37573C38.2424 6.87269 38.1938 7.36965 38.1938 7.89086C38.1938 8.47266 38.2544 9.04234 38.3757 9.58779L41.1756 8.90901C41.1029 8.53327 41.0544 8.15751 41.0544 7.75752Z" fill="#DB8C18"/>
<path d="M45.988 0C44.7153 0 43.5032 0.315141 42.4365 0.860591L43.6851 3.35749C44.3517 3.00599 45.1274 2.79993 45.9396 2.79993C48.3395 2.79993 50.3273 4.54535 50.7636 6.8362L53.5999 6.19379C52.8363 2.65448 49.7212 0 45.988 0Z" fill="#E5E019"/>
<path d="M45.2608 10.5332H47.3092C47.3092 10.5332 47.7577 7.28489 49.1152 4.8607C50.4606 2.43652 52.5574 1.30927 53.9999 0.630493C53.3332 0.630493 50.4122 0.788071 48.1333 3.21225C46.3152 5.15161 46.0001 6.54551 45.7455 7.30913C45.2122 6.53339 44.4123 5.26069 44.4123 5.26069H41.9517L45.2608 10.5332Z" fill="#80B23D"/>
</svg>
