<svg xmlns="http://www.w3.org/2000/svg" width="165" height="41.145" viewBox="0 0 165 41.145">
  <g id="Group_164" data-name="Group 164" transform="translate(-9.89 -17.442)">
    <path id="Path_1" data-name="Path 1" d="M114.753,48.805a2.527,2.527,0,1,1-5.053,0V36.558a4.14,4.14,0,0,0-1.251-3.007,4.246,4.246,0,0,0-7.242,3.007V48.805a2.527,2.527,0,1,1-5.054,0V36.558a9.29,9.29,0,0,1,15.881-6.568c.072.072.12.144.193.217l.217-.217a9.311,9.311,0,0,1,15.88,6.568V48.805a2.526,2.526,0,1,1-5.052,0V36.558a4.259,4.259,0,0,0-8.518,0Z" transform="translate(-19.786 -2.249)" fill="#161615"/>
    <path id="Path_2" data-name="Path 2" d="M153.467,27.246a12.036,12.036,0,1,1-8.518,3.537,12,12,0,0,1,8.518-3.537Zm4.957,7.1a6.982,6.982,0,0,0-4.957-2.044,6.99,6.99,0,0,0,0,13.979,6.993,6.993,0,0,0,4.957-11.935Z" transform="translate(-30.173 -2.249)" fill="#161615"/>
    <path id="Path_3" data-name="Path 3" d="M73.665,27.246a12.036,12.036,0,1,1-8.518,3.537,12,12,0,0,1,8.518-3.537Zm4.957,7.1A6.983,6.983,0,0,0,73.665,32.3a6.99,6.99,0,0,0,0,13.979,6.993,6.993,0,0,0,4.957-11.935Z" transform="translate(-11.868 -2.249)" fill="#161615"/>
    <path id="Path_4" data-name="Path 4" d="M9.89,50.534V63.675a2.526,2.526,0,0,0,5.052,0V56.1a13.559,13.559,0,0,1-2.531-1.947A13.39,13.39,0,0,1,9.89,50.534Z" transform="translate(0 -7.59)" fill="#16bcdc"/>
    <path id="Path_5" data-name="Path 5" d="M13.434,30.783A11.97,11.97,0,0,0,15.1,49.168a12.217,12.217,0,0,0,2.8,1.41c.233.085.472.152.711.221a11.889,11.889,0,0,0,3.345.532h0a12.043,12.043,0,1,0-8.518-20.549ZM28.955,39.3a6.984,6.984,0,0,1-7,6.979h0a6.99,6.99,0,1,1,0-13.98h0a6.984,6.984,0,0,1,7,7Z" transform="translate(-0.007 -2.249)" fill="#161615"/>
    <path id="Path_6" data-name="Path 6" d="M55,27.246A2.527,2.527,0,0,1,55,32.3a5.873,5.873,0,0,0-5.847,5.846V48.805a2.527,2.527,0,1,1-5.053,0V38.146A10.924,10.924,0,0,1,55,27.246Z" transform="translate(-7.847 -2.249)" fill="#161615"/>
    <path id="Path_7" data-name="Path 7" d="M218.194,44.03a2.527,2.527,0,0,1,0,5.053,7.878,7.878,0,0,1-6.4-2.767,10.711,10.711,0,0,1-2.093-7V19.968a2.515,2.515,0,1,1,5.029,0V25h3.465a2.527,2.527,0,0,1,0,5.054h-3.465v9.263a5.939,5.939,0,0,0,.962,3.778,3.045,3.045,0,0,0,2.5.939Z" transform="translate(-45.83 0)" fill="#161615"/>
    <path id="Path_8" data-name="Path 8" d="M186.707,22.47a2.514,2.514,0,1,0,0-5.028h-2.118a7.623,7.623,0,0,0-6.015,2.767,10.71,10.71,0,0,0-2.118,7V46.556a2.526,2.526,0,1,0,5.053,0V30.051h3.464a2.527,2.527,0,0,0,0-5.054H181.51c0-1.588,1.732-2.407,3.128-2.5.12-.025,1.949-.025,2.069-.025Z" transform="translate(-38.205 0)" fill="#161615"/>
    <g id="Group_163" data-name="Group 163" transform="translate(153.22 17.442)">
      <path id="Path_9" data-name="Path 9" d="M198.791,17.442a2.911,2.911,0,1,1-2.911,2.911,2.906,2.906,0,0,1,2.911-2.911Z" transform="translate(-195.88 -17.442)" fill="#16bcdc" fill-rule="evenodd"/>
      <path id="Path_10" data-name="Path 10" d="M201.433,48.805a2.527,2.527,0,1,1-5.054,0V29.773a2.527,2.527,0,1,1,5.054,0Z" transform="translate(-195.994 -19.691)" fill="#161615" fill-rule="evenodd"/>
    </g>
  </g>
</svg>
