<svg width="333" height="28" viewBox="0 0 333 28" fill="none" xmlns="http://www.w3.org/2000/svg">
<g clip-path="url(#clip0_2576_6282)">
<path d="M0 1V27.5193H15.4179C25.5885 27.5193 29.9986 21.808 29.9986 14.2336C29.9986 6.68955 25.5885 1 15.4179 1H0Z" fill="white"/>
<path d="M1.66577 2.67285H15.4194C24.7543 2.67285 28.3329 7.78533 28.3329 14.2332C28.3329 21.9657 23.3358 25.8457 15.4194 25.8457H1.66577V2.67285ZM3.00036 4.00969V24.5089H15.4208C22.9194 24.5089 26.9998 21.0044 26.9998 14.2332C26.9998 7.2735 22.5767 4.00969 15.4208 4.00969H3.00036Z" fill="black"/>
<path d="M4.66602 15.7402H8.6423V22.8362H4.66602V15.7402Z" fill="black"/>
<path d="M6.65419 14.6444C8.01893 14.6444 9.12527 13.5349 9.12527 12.1664C9.12527 10.7979 8.01893 9.68848 6.65419 9.68848C5.28945 9.68848 4.18311 10.7979 4.18311 12.1664C4.18311 13.5349 5.28945 14.6444 6.65419 14.6444Z" fill="black"/>
<path d="M16.981 13.3243V14.4726H14.147V9.86181H16.8899V11.0102H15.2922V11.5437H16.8032V12.6921H15.2922V13.3243H16.981ZM17.4755 14.4741L18.8622 9.86036H20.4917L21.8784 14.4741H20.6855L20.4252 13.5823H18.9272L18.667 14.4741H17.4755ZM19.2627 12.434H20.0912L19.7109 11.1305H19.6415L19.2627 12.434ZM22.4538 9.86181H23.6005V13.3243H25.2965C24.8309 7.04023 19.9018 5.68164 15.4209 5.68164H10.645V9.86326H11.3521C12.6404 9.86326 13.4414 10.739 13.4414 12.1498C13.4414 13.6055 12.6606 14.4741 11.3521 14.4741H10.645V22.8402H15.4223C22.7054 22.8402 25.2416 19.4488 25.3312 14.4741H22.4553V9.86181H22.4538ZM10.6436 11.0131V13.3243H11.3506C11.8408 13.3243 12.2948 13.1822 12.2948 12.1498C12.2948 11.1421 11.7902 11.0116 11.3506 11.0116H10.6436V11.0131Z" fill="#D50072"/>
</g>
<g clip-path="url(#clip1_2576_6282)">
<path d="M67.4089 26.1308V26.1911H67.4649C67.4754 26.1912 67.4857 26.1886 67.4949 26.1834C67.4985 26.1808 67.5015 26.1773 67.5034 26.1733C67.5054 26.1693 67.5063 26.1648 67.5061 26.1603C67.5063 26.1559 67.5054 26.1516 67.5034 26.1476C67.5014 26.1437 67.4985 26.1403 67.4949 26.1379C67.4858 26.1324 67.4754 26.1297 67.4649 26.1302H67.4089V26.1308ZM67.4655 26.0881C67.4894 26.0867 67.5132 26.0936 67.5327 26.1077C67.5405 26.1142 67.5467 26.1223 67.5508 26.1316C67.5548 26.1409 67.5567 26.151 67.5562 26.1611C67.5566 26.1698 67.5551 26.1785 67.5518 26.1866C67.5486 26.1946 67.5436 26.2019 67.5373 26.2079C67.5223 26.2211 67.5035 26.2289 67.4836 26.2304L67.5586 26.3163H67.5009L67.4319 26.231H67.4095V26.3163H67.3612V26.0883H67.4662L67.4655 26.0881ZM67.4505 26.395C67.4758 26.3952 67.5009 26.3901 67.5241 26.3799C67.5465 26.3702 67.5669 26.3563 67.5841 26.3391C67.6014 26.3218 67.6152 26.3013 67.6248 26.2788C67.6444 26.231 67.6444 26.1773 67.6248 26.1296C67.6151 26.1071 67.6013 26.0867 67.5841 26.0693C67.5669 26.052 67.5465 26.0382 67.5241 26.0285C67.5008 26.0188 67.4757 26.014 67.4505 26.0143C67.4248 26.0141 67.3993 26.0189 67.3755 26.0285C67.3526 26.038 67.3317 26.0518 67.3141 26.0693C67.2876 26.0966 67.2696 26.1312 67.2625 26.1687C67.2554 26.2063 67.2594 26.245 67.2741 26.2803C67.2832 26.3029 67.2968 26.3234 67.3141 26.3406C67.3318 26.358 67.3526 26.3719 67.3755 26.3814C67.3992 26.3916 67.4247 26.3967 67.4505 26.3965M67.4505 25.9594C67.5164 25.9594 67.5797 25.9854 67.6267 26.0318C67.6494 26.0541 67.6674 26.0807 67.6798 26.11C67.6926 26.1401 67.6992 26.1725 67.6992 26.2053C67.6992 26.2381 67.6926 26.2705 67.6798 26.3006C67.6671 26.3298 67.6491 26.3563 67.6267 26.3788C67.6037 26.401 67.5769 26.4189 67.5477 26.4316C67.5169 26.4447 67.4839 26.4514 67.4505 26.4512C67.4167 26.4514 67.3832 26.4447 67.3521 26.4316C67.3225 26.4192 67.2954 26.4013 67.2724 26.3788C67.25 26.3555 67.2322 26.3281 67.2201 26.2981C67.2072 26.2679 67.2006 26.2355 67.2006 26.2027C67.2006 26.17 67.2072 26.1376 67.2201 26.1074C67.2324 26.0781 67.2505 26.0515 67.2732 26.0292C67.2959 26.0064 67.323 25.9885 67.3528 25.9765C67.384 25.9633 67.4174 25.9566 67.4512 25.9569M44.4825 25.0789C44.4825 24.6442 44.766 24.287 45.2293 24.287C45.6721 24.287 45.9709 24.6288 45.9709 25.0789C45.9709 25.5291 45.6721 25.8708 45.2293 25.8708C44.766 25.8708 44.4825 25.5137 44.4825 25.0789ZM46.4757 25.0789V23.8417H45.9403V24.1431C45.7705 23.9204 45.513 23.7807 45.1627 23.7807C44.4727 23.7807 43.9312 24.3244 43.9312 25.0795C43.9312 25.8347 44.4724 26.3784 45.1627 26.3784C45.5128 26.3784 45.7705 26.2385 45.9403 26.016V26.3163H46.4751V25.0789H46.4757ZM64.5645 25.0789C64.5645 24.6442 64.848 24.287 65.3115 24.287C65.7547 24.287 66.0531 24.6288 66.0531 25.0789C66.0531 25.5291 65.7547 25.8708 65.3115 25.8708C64.8481 25.8708 64.5645 25.5137 64.5645 25.0789ZM66.5583 25.0789V22.8486H66.0225V24.1431C65.8527 23.9204 65.5951 23.7807 65.2449 23.7807C64.5549 23.7807 64.0134 24.3244 64.0134 25.0795C64.0134 25.8347 64.5546 26.3784 65.2449 26.3784C65.5951 26.3784 65.8527 26.2385 66.0225 26.016V26.3163H66.5583V25.0789ZM53.1201 24.2616C53.4651 24.2616 53.6866 24.4789 53.7432 24.8615H52.4658C52.5229 24.5043 52.7388 24.2616 53.1202 24.2616M53.1309 23.7793C52.4094 23.7793 51.9046 24.3068 51.9046 25.0782C51.9046 25.8647 52.4296 26.377 53.1667 26.377C53.5375 26.377 53.8771 26.284 54.1759 26.0304L53.9136 25.6318C53.7072 25.7976 53.4444 25.8906 53.1973 25.8906C52.8523 25.8906 52.5382 25.7301 52.461 25.2848H54.289C54.2943 25.2179 54.2997 25.1504 54.2997 25.078C54.2943 24.3069 53.8197 23.7792 53.1306 23.7792M59.5941 25.078C59.5941 24.6433 59.8776 24.2861 60.3409 24.2861C60.7837 24.2861 61.0825 24.6279 61.0825 25.078C61.0825 25.5282 60.7837 25.8699 60.3409 25.8699C59.8776 25.8699 59.5939 25.5128 59.5939 25.078M61.5871 25.078V23.8417H61.0521V24.1431C60.8817 23.9204 60.6247 23.7807 60.2745 23.7807C59.5845 23.7807 59.043 24.3244 59.043 25.0795C59.043 25.8347 59.5842 26.3784 60.2745 26.3784C60.6247 26.3784 60.8817 26.2385 61.0521 26.016V26.3163H61.5873V25.0789L61.5871 25.078ZM56.5708 25.078C56.5708 25.8283 57.0907 26.3769 57.8842 26.3769C58.255 26.3769 58.5021 26.294 58.7692 26.082L58.5121 25.6472C58.3111 25.7923 58.1001 25.8699 57.8671 25.8699C57.4398 25.8647 57.1255 25.5542 57.1255 25.078C57.1255 24.6018 57.4398 24.2915 57.8671 24.2861C58.0995 24.2861 58.3105 24.3637 58.5121 24.5088L58.7692 24.0741C58.5016 23.8621 58.2546 23.7792 57.8842 23.7792C57.0907 23.7792 56.5708 24.3276 56.5708 25.078ZM63.4723 23.7792C63.1635 23.7792 62.9623 23.9243 62.8233 24.1416V23.8417H62.2927V26.3149H62.8287V24.9285C62.8287 24.5192 63.0037 24.2918 63.3537 24.2918C63.4683 24.2902 63.5821 24.3113 63.6885 24.3541L63.8535 23.8471C63.735 23.8003 63.5805 23.7796 63.472 23.7796M49.1224 24.0384C48.8649 23.8678 48.51 23.7796 48.1185 23.7796C47.4948 23.7796 47.0932 24.08 47.0932 24.5714C47.0932 24.9747 47.3922 25.2234 47.9427 25.3011L48.1956 25.3372C48.4891 25.3787 48.6277 25.4563 48.6277 25.596C48.6277 25.7872 48.4327 25.8963 48.0666 25.8963C47.6958 25.8963 47.4282 25.7773 47.2477 25.6376L46.9962 26.0569C47.2897 26.2743 47.6605 26.3779 48.0621 26.3779C48.7731 26.3779 49.1851 26.0416 49.1851 25.5707C49.1851 25.1359 48.8608 24.9085 48.325 24.8309L48.0727 24.7941C47.841 24.764 47.6553 24.7171 47.6553 24.5513C47.6553 24.3705 47.8303 24.2617 48.124 24.2617C48.4383 24.2617 48.7425 24.3808 48.8916 24.4737L49.1233 24.039L49.1224 24.0384ZM56.0301 23.7801C55.7212 23.7801 55.5201 23.9252 55.3816 24.1425V23.8417H54.8511V26.3149H55.3864V24.9285C55.3864 24.5192 55.5615 24.2918 55.9114 24.2918C56.026 24.2902 56.1398 24.3113 56.2462 24.3541L56.4112 23.8471C56.2927 23.8003 56.1382 23.7796 56.0298 23.7796M51.4617 23.8417H50.5863V23.0914H50.0451V23.8417H49.5457V24.3333H50.0451V25.4615C50.0451 26.0354 50.2668 26.3772 50.9001 26.3772C51.1324 26.3772 51.4 26.3048 51.5698 26.1859L51.4152 25.7254C51.2554 25.8184 51.0804 25.8653 50.9412 25.8653C50.6736 25.8653 50.5863 25.6995 50.5863 25.4513V24.3337H51.4617V23.8417ZM43.4578 26.3155V24.7634C43.4578 24.1788 43.087 23.7855 42.4893 23.7802C42.175 23.775 41.8509 23.8732 41.6239 24.2203C41.4541 23.946 41.1865 23.7802 40.8103 23.7802C40.5474 23.7802 40.2904 23.8578 40.0893 24.1475V23.8417H39.5535V26.3149H40.0935V24.9436C40.0935 24.5143 40.3305 24.2861 40.6965 24.2861C41.052 24.2861 41.2318 24.5189 41.2318 24.9382V26.3146H41.773V24.9433C41.773 24.514 42.0201 24.2858 42.3754 24.2858C42.741 24.2858 42.9154 24.5186 42.9154 24.9379V26.3143L43.4578 26.3155Z" fill="#231F20"/>
<path d="M67.714 18.0882V17.7266H67.6202L67.5118 17.9748L67.4039 17.7266H67.3099V18.0882H67.3765V17.8158L67.4779 18.0509H67.5469L67.6483 17.8152V18.0882H67.7143H67.714ZM67.1192 18.0882V17.7885H67.2392V17.7275H66.9326V17.7885H67.0526V18.0882H67.1186H67.1192Z" fill="#F79410"/>
<path d="M57.0585 19.6388H48.9456V4.99121H57.0586L57.0585 19.6388Z" fill="#FF5F00"/>
<path d="M49.46 12.3156C49.46 9.34431 50.8448 6.69748 53.0012 4.99176C51.3689 3.69871 49.35 2.99692 47.2714 3.00001C42.1508 3.00001 38 7.17067 38 12.3156C38 17.4605 42.1508 21.6311 47.2714 21.6311C49.3501 21.6343 51.369 20.9325 53.0014 19.6394C50.8451 17.934 49.46 15.287 49.46 12.3156Z" fill="#EB001B"/>
<path d="M68.0038 12.3156C68.0038 17.4605 63.853 21.6311 58.7325 21.6311C56.6535 21.6342 54.6343 20.9324 53.0017 19.6394C55.1587 17.9337 56.5435 15.287 56.5435 12.3156C56.5435 9.34415 55.1587 6.69748 53.0017 4.99176C54.6343 3.69875 56.6534 2.99698 58.7323 3.00001C63.8529 3.00001 68.0037 7.17067 68.0037 12.3156" fill="#F79E1B"/>
</g>
<g clip-path="url(#clip2_2576_6282)">
<path d="M103.311 24.6493H98.1698L101.383 4.36302H106.524L103.311 24.6493ZM93.846 4.36302L88.9443 18.3148L88.3635 15.3091L86.6357 6.19045C86.6357 6.19045 86.4261 4.36302 84.1984 4.36302H76.0958L76 4.70451C76 4.70451 78.4763 5.23367 81.3778 7.02417L85.8452 24.6493H91.202L99.3795 4.36302H93.846ZM134.278 24.6493H139L134.883 4.36302H130.751C128.843 4.36302 128.376 5.87357 128.376 5.87357L120.711 24.6493H126.071L127.143 21.6374H133.676L134.278 24.6493ZM128.622 17.4719L131.323 9.87914L132.841 17.4719H128.622ZM121.112 9.24231L121.846 4.88602C121.846 4.88602 119.582 4 117.222 4C114.671 4 108.614 5.14445 108.614 10.7159C108.614 15.9582 115.725 16.0229 115.725 18.7763C115.725 21.5297 109.347 21.0344 107.242 19.2993L106.479 23.8556C106.479 23.8556 108.776 25 112.282 25C115.791 25 121.082 23.1326 121.082 18.0533C121.082 12.7772 113.908 12.288 113.908 9.99297C113.908 7.701 118.914 7.99634 121.112 9.24231Z" fill="#2566AF"/>
<path d="M88.3664 15.3126L86.6357 6.18778C86.6357 6.18778 86.4261 4.36035 84.1984 4.36035H76.0958L76 4.70492C76 4.70492 79.8956 5.53556 83.6295 8.63973C87.2017 11.6116 88.3664 15.3126 88.3664 15.3126Z" fill="#E6A540"/>
</g>
<g clip-path="url(#clip3_2576_6282)">
<path d="M160.848 4H179.657C179.897 4.07352 180.15 4.12956 180.36 4.27527C180.531 4.3989 180.685 4.5522 180.79 4.73615C180.893 4.92341 180.948 5.13077 181 5.33615V9.32517C180.935 9.56451 180.886 9.82297 180.723 10.0198C180.407 10.4062 179.922 10.6781 179.413 10.6584C177.813 10.6584 176.213 10.6636 174.613 10.6551C175.013 10.177 175.435 9.71549 175.843 9.24341C176.279 8.73637 176.729 8.24055 177.16 7.72923C173.754 7.71868 170.348 7.73022 166.942 7.72363C166.879 7.72363 166.807 7.72132 166.765 7.77868C164.973 9.78308 163.182 11.7881 161.391 13.7932C161.322 13.8677 161.264 13.9537 161.179 14.0124C160.986 14.0487 160.789 14.0091 160.594 14.0124C158.4 14.0111 156.206 14.0124 154.012 14.0118C153.064 14.0434 152.116 14.0091 151.168 14.0137C151.016 14.0029 150.811 14.0942 150.701 13.9495C150.7 13.9353 150.697 13.9076 150.696 13.8934C150.763 13.7658 150.892 13.6857 150.984 13.5756C151.503 12.9954 152.027 12.4185 152.568 11.858C152.823 11.5613 153.108 11.291 153.354 10.9864C153.669 10.6115 153.999 10.2486 154.331 9.88857C154.602 9.56681 154.887 9.25725 155.165 8.94242C155.445 8.62692 155.742 8.32791 156.007 8.00055C156.775 7.13912 157.545 6.27901 158.312 5.41758C158.487 5.22967 158.647 5.02692 158.843 4.85978C159.087 4.62242 159.401 4.48066 159.702 4.33132C159.931 4.21264 160.189 4.16978 160.434 4.09659C160.572 4.06363 160.719 4.05571 160.849 4L160.848 4Z" fill="#FFD800"/>
<path d="M166.764 7.77869C166.806 7.72133 166.878 7.72396 166.942 7.72363C170.348 7.73023 173.754 7.71869 177.16 7.72924C176.729 8.24023 176.279 8.73638 175.843 9.24341C175.435 9.71583 175.013 10.177 174.612 10.6554C172.925 12.5675 171.261 14.501 169.567 16.4081C169.295 16.7121 168.98 16.9877 168.61 17.167C168.463 17.2415 168.315 17.317 168.164 17.3823C168.035 17.4403 167.891 17.439 167.757 17.4759C167.586 17.5214 167.42 17.588 167.242 17.6012C167.011 17.6203 166.778 17.6124 166.546 17.6078C160.692 17.6068 154.838 17.6085 148.984 17.6078C148.722 17.6078 148.455 17.6368 148.197 17.5729C148.065 17.5346 147.936 17.4832 147.806 17.437C147.614 17.3734 147.48 17.2135 147.345 17.0724C147.128 16.8384 147.07 16.5133 147 16.214V12.2912C147.097 12.039 147.132 11.7499 147.325 11.5452C147.621 11.2244 148.036 10.9623 148.488 10.988C149.459 10.9903 150.429 10.988 151.399 10.989C152.05 10.9996 152.702 10.9587 153.353 10.9864C153.107 11.2907 152.823 11.5613 152.567 11.8577C152.026 12.4181 151.502 12.9951 150.983 13.5753C150.891 13.6854 150.762 13.7658 150.695 13.8937C150.697 13.9079 150.699 13.9356 150.7 13.9498C150.81 14.0942 151.015 14.0025 151.167 14.0137C152.115 14.0091 153.063 14.0434 154.011 14.0118C156.205 14.0128 158.399 14.0111 160.593 14.0124C160.788 14.0091 160.985 14.0487 161.178 14.0124C161.263 13.9541 161.322 13.868 161.39 13.7935C163.181 11.7885 164.972 9.78341 166.764 7.77902L166.764 7.77869ZM147.755 20.1812C148.239 20.1219 148.732 20.1219 149.213 20.203C149.5 20.2293 149.777 20.3269 150.028 20.4634C150.239 20.625 150.414 20.8541 150.457 21.1211C150.495 21.338 150.515 21.5619 150.482 21.7811C150.45 21.9361 150.381 22.0834 150.289 22.2123C150.226 22.3069 150.12 22.3584 150.041 22.4365C149.986 22.5881 150.146 22.6765 150.239 22.7619C150.436 22.9432 150.529 23.2185 150.533 23.4815C150.536 23.7802 150.51 24.1046 150.318 24.3486C150.185 24.5121 150.044 24.6848 149.845 24.7682C149.62 24.8639 149.378 24.9077 149.139 24.9506C148.951 24.9868 148.759 24.9664 148.572 25H148.439C148.379 24.9974 148.32 24.9802 148.26 24.9779C147.922 24.9806 147.578 24.9773 147.252 24.8823C147.136 24.8559 147.059 24.757 147.001 24.6604V20.4614C147.053 20.3813 147.106 20.2917 147.198 20.2531C147.378 20.1961 147.571 20.2102 147.756 20.1815M148.133 20.9793C148.064 21.0196 148.024 21.0947 148.032 21.1739C148.036 21.4277 148.049 21.6825 148.023 21.9364C148.004 22.0439 148.079 22.1599 148.192 22.1704C148.357 22.1856 148.523 22.1685 148.688 22.1757C148.872 22.1856 149.053 22.1309 149.226 22.0725C149.357 21.9878 149.488 21.8615 149.501 21.6974C149.512 21.5589 149.513 21.4073 149.437 21.2853C149.362 21.1725 149.255 21.07 149.118 21.042C148.795 20.9734 148.461 20.9391 148.133 20.9793ZM148.167 22.8684C148.081 22.8835 148.028 22.9706 148.035 23.055C148.036 23.3523 148.049 23.6503 148.024 23.947C148.011 24.0637 148.108 24.1712 148.224 24.1778C148.568 24.191 148.923 24.1778 149.243 24.038C149.534 23.8732 149.61 23.467 149.447 23.1881C149.318 22.9926 149.093 22.8598 148.855 22.8677C148.626 22.8776 148.396 22.8578 148.167 22.8684M150.084 24.4772C150.039 24.5002 150.039 24.5226 150.082 24.5437C150.125 24.5207 150.126 24.4986 150.084 24.4772H150.084ZM170.628 20.5023C170.699 20.4726 170.8 20.4825 170.833 20.5617C170.89 20.7512 170.835 20.9507 170.842 21.1445C170.848 21.2329 170.927 21.3011 171.012 21.3153C171.152 21.3384 171.296 21.2648 171.434 21.3103C171.568 21.3815 171.525 21.5467 171.532 21.6703C171.526 21.7745 171.561 21.911 171.455 21.9786C171.283 22.0633 171.081 21.9423 170.909 22.0303C170.809 22.1101 170.861 22.2545 170.854 22.3633C170.842 22.9237 170.854 23.4842 170.856 24.0446C170.856 24.1435 170.918 24.2424 171.016 24.2711C171.162 24.312 171.317 24.2513 171.464 24.2882C171.56 24.3634 171.549 24.4966 171.555 24.6054C171.552 24.705 171.561 24.8302 171.471 24.8968C171.354 24.9717 171.208 24.9687 171.075 24.9776C170.752 24.9941 170.381 24.9921 170.131 24.7567C169.947 24.5965 169.917 24.3407 169.898 24.1122C169.899 23.4628 169.899 22.8133 169.899 22.1639C169.907 22.0623 169.818 21.9858 169.727 21.9608C169.582 21.908 169.401 21.9598 169.278 21.8497C169.19 21.7837 169.219 21.6644 169.222 21.5711C169.235 21.4788 169.224 21.3492 169.33 21.3084C169.499 21.2635 169.697 21.3852 169.852 21.2711C169.968 21.1326 169.869 20.9414 169.897 20.7799C169.887 20.6777 169.991 20.6184 170.079 20.6068C170.263 20.5748 170.453 20.5715 170.628 20.502V20.5023ZM180.119 20.5C180.182 20.4809 180.285 20.4687 180.301 20.5544C180.34 20.7578 180.305 20.9665 180.318 21.1719C180.323 21.249 180.399 21.3018 180.47 21.3156C180.609 21.3328 180.754 21.2596 180.888 21.3173C181 21.3815 180.962 21.5306 180.973 21.637C180.961 21.7524 181.008 21.914 180.887 21.9852C180.726 22.0561 180.547 21.9565 180.385 22.0135C180.322 22.0508 180.329 22.1342 180.325 22.1971C180.328 22.7793 180.327 23.3615 180.325 23.9437C180.328 24.0433 180.317 24.1706 180.415 24.2315C180.547 24.3291 180.716 24.2606 180.865 24.2751C180.997 24.307 180.972 24.4696 180.981 24.5718C180.975 24.6947 181.007 24.8718 180.864 24.9285C180.644 25.0066 180.404 24.9746 180.176 24.9789C179.973 24.9855 179.778 24.9097 179.61 24.8022C179.533 24.7376 179.451 24.6631 179.424 24.5625C179.364 24.1175 179.381 23.6675 179.38 23.2198C179.38 22.8895 179.38 22.5591 179.38 22.2291C179.379 22.1517 179.374 22.0587 179.303 22.0115C179.179 21.9324 179.028 21.9357 178.888 21.9176C178.783 21.9077 178.667 21.8226 178.689 21.7046C178.704 21.578 178.656 21.4145 178.765 21.3202C178.944 21.2401 179.174 21.4069 179.334 21.2609C179.45 21.0829 179.312 20.8554 179.401 20.6685C179.461 20.5795 179.584 20.5959 179.677 20.5828C179.828 20.5778 179.976 20.5448 180.119 20.5003V20.5ZM151.782 21.3265C152.153 21.2517 152.535 21.2342 152.913 21.2573C153.282 21.2995 153.671 21.4442 153.89 21.7603C154.066 21.999 154.095 22.3059 154.101 22.5928C154.093 23.2742 154.11 23.9559 154.091 24.6374C154.086 24.7336 154.084 24.855 153.989 24.9103C153.834 24.9423 153.674 24.913 153.517 24.9242C153.416 24.9209 153.297 24.9453 153.214 24.8721C153.143 24.8286 153.082 24.7402 152.989 24.7584C152.839 24.8161 152.716 24.9403 152.55 24.9588C152.458 24.9664 152.368 24.9997 152.274 25H152.045C151.816 24.9417 151.577 24.8695 151.41 24.6934C151.16 24.4356 151.161 24.0463 151.173 23.711C151.178 23.3569 151.442 23.0464 151.766 22.9251C152.121 22.837 152.49 22.7972 152.856 22.8245C152.964 22.8354 153.104 22.7774 153.108 22.6531C153.119 22.4708 153.084 22.2687 152.958 22.1289C152.892 22.0524 152.782 22.0541 152.69 22.0518C152.304 22.0551 151.918 22.0531 151.532 22.0593C151.448 22.0673 151.383 21.9819 151.4 21.9024C151.412 21.7554 151.399 21.6057 151.422 21.4607C151.507 21.3525 151.659 21.3519 151.783 21.3265M152.506 23.3375C152.227 23.355 152.055 23.6556 152.09 23.9144C152.08 24.0908 152.22 24.2484 152.393 24.2744C152.596 24.3061 152.813 24.2754 152.997 24.1844C153.162 24.0723 153.118 23.8514 153.123 23.681C153.125 23.5524 153.143 23.3652 152.985 23.3217C152.826 23.3045 152.665 23.3315 152.506 23.3375H152.506ZM156.639 21.2615C156.766 21.2451 156.894 21.2431 157.022 21.2411C157.389 21.2286 157.742 21.462 157.899 21.789C158.041 22.0439 158.044 22.3429 158.059 22.6264C158.031 23.2303 158.082 23.8353 158.048 24.4396C158.035 24.6004 158.097 24.8121 157.935 24.9176C157.708 24.9295 157.481 24.9182 157.253 24.9229C157.152 24.9304 157.077 24.8319 157.078 24.7373C157.112 24.1003 157.085 23.4614 157.094 22.8242C157.092 22.5934 157.113 22.3274 156.942 22.1464C156.833 22.0132 156.644 22.03 156.49 22.0336C156.296 22.0353 156.133 22.149 155.965 22.2314C155.882 22.2598 155.891 22.3577 155.886 22.4282C155.893 23.197 155.89 23.9658 155.886 24.735C155.888 24.8128 155.855 24.9219 155.76 24.9219C155.532 24.9219 155.304 24.9242 155.076 24.9202C154.979 24.9186 154.917 24.8273 154.927 24.7356C154.928 24.1422 154.925 23.5488 154.929 22.9554C154.944 22.5598 154.938 22.1642 154.939 21.7686C154.942 21.6387 154.912 21.5062 154.942 21.3779C154.954 21.3212 155.018 21.2972 155.07 21.2962C155.192 21.2942 155.313 21.3212 155.435 21.3093C155.542 21.3054 155.652 21.2764 155.758 21.3084C155.829 21.3661 155.852 21.4682 155.933 21.5161C155.999 21.5302 156.058 21.4874 156.114 21.4584C156.274 21.3601 156.453 21.2892 156.64 21.2606L156.639 21.2615ZM159.978 21.2615C160.334 21.2375 160.697 21.2339 161.046 21.3176C161.147 21.3423 161.254 21.4247 161.245 21.5385C161.239 21.671 161.251 21.8029 161.26 21.9351C161.248 22.0274 161.15 22.0917 161.059 22.0752C160.817 22.0462 160.573 22.0561 160.33 22.0534C160.238 22.0567 160.132 22.0593 160.062 22.1306C159.971 22.2196 159.873 22.3152 159.849 22.4464C159.779 22.754 159.798 23.0728 159.804 23.3859C159.814 23.5913 159.814 23.8218 159.952 23.9899C160.065 24.1109 160.225 24.2029 160.395 24.1893C160.576 24.1821 160.761 24.2072 160.937 24.1557C161.014 24.1379 161.103 24.1079 161.175 24.1547C161.235 24.1966 161.248 24.2721 161.245 24.34C161.241 24.4709 161.255 24.6021 161.246 24.7333C161.213 24.8734 161.053 24.9014 160.932 24.9192C160.628 25.0017 160.31 24.9895 160 24.972C159.651 24.8929 159.264 24.7689 159.064 24.4504C158.998 24.3436 158.924 24.2345 158.909 24.1076C158.882 23.9223 158.842 23.7384 158.846 23.5504C158.844 23.0889 158.818 22.6241 158.902 22.1675C158.912 21.9532 159.077 21.795 159.213 21.6459C159.414 21.4317 159.7 21.3275 159.979 21.2619L159.978 21.2615ZM162.922 21.2635C163.266 21.2273 163.628 21.223 163.953 21.3568C164.223 21.4557 164.452 21.6482 164.618 21.881C164.69 21.9964 164.719 22.1315 164.768 22.2581C164.849 22.4698 164.834 22.6999 164.839 22.9228C164.834 23.1535 164.846 23.3843 164.833 23.6151C164.827 23.8369 164.738 24.0436 164.668 24.25C164.543 24.5817 164.227 24.8006 163.894 24.8929C163.72 24.9522 163.537 24.9799 163.354 24.9997H163.191C162.99 24.9799 162.787 24.9585 162.599 24.8793C162.277 24.7818 161.985 24.5596 161.837 24.2546C161.751 23.9952 161.665 23.7288 161.664 23.4525C161.665 23.0134 161.631 22.5585 161.793 22.1404C161.825 21.9598 161.924 21.8019 162.061 21.6822C162.287 21.4442 162.608 21.3295 162.922 21.2635M163.084 22.0745C162.894 22.1454 162.763 22.3218 162.694 22.5064C162.638 22.7279 162.644 22.9593 162.642 23.1865C162.649 23.4215 162.634 23.6777 162.771 23.8821C162.849 24.0393 163.01 24.1346 163.174 24.1828C163.351 24.2266 163.512 24.1221 163.642 24.0163C163.766 23.8811 163.859 23.7054 163.856 23.5185C163.858 23.2528 163.855 22.9877 163.857 22.7223C163.861 22.4955 163.732 22.2815 163.556 22.1447C163.426 22.0373 163.241 22.0326 163.084 22.0745ZM167.288 21.2606C167.538 21.2388 167.8 21.2161 168.04 21.3034C168.197 21.3759 168.363 21.4584 168.46 21.6084C168.576 21.758 168.649 21.938 168.67 22.1259C168.752 22.4398 168.722 22.7668 168.728 23.0879C168.739 23.6266 168.712 24.1653 168.726 24.704C168.732 24.8161 168.638 24.9166 168.526 24.9209C168.329 24.9275 168.131 24.9182 167.934 24.9242C167.838 24.9334 167.72 24.8688 167.714 24.765C167.74 24.008 167.72 23.2495 167.726 22.4919C167.739 22.3185 167.652 22.118 167.477 22.06C167.158 21.9743 166.789 22.0715 166.563 22.3099C166.553 23.0635 166.559 23.8188 166.559 24.5728C166.565 24.6957 166.575 24.8695 166.426 24.9117C166.225 24.9393 166.02 24.9117 165.818 24.9239C165.718 24.9347 165.606 24.8711 165.593 24.7666C165.606 23.6484 165.593 22.5288 165.6 21.4106C165.633 21.2761 165.809 21.2886 165.917 21.3064C166.057 21.3433 166.196 21.2708 166.335 21.2899C166.454 21.3123 166.45 21.458 166.526 21.5279C166.576 21.5642 166.633 21.5289 166.681 21.5075C166.874 21.4053 167.069 21.2955 167.288 21.2602L167.288 21.2606ZM173.111 21.2622C173.337 21.2431 173.565 21.2477 173.793 21.253C174.041 21.2668 174.28 21.3496 174.502 21.4574C174.687 21.5879 174.848 21.7659 174.933 21.9782C174.96 22.1817 175.005 22.3857 174.993 22.5928C174.991 23.2303 174.994 23.8679 174.993 24.5055C174.99 24.612 175.005 24.7224 174.971 24.8253C174.934 24.91 174.835 24.9331 174.751 24.9248C174.567 24.9156 174.383 24.9337 174.2 24.9173C174.098 24.8596 174.029 24.7135 173.891 24.7603C173.716 24.8388 173.559 24.9786 173.358 24.9796C173.159 24.9769 172.952 25.0026 172.76 24.9367C172.614 24.883 172.462 24.8306 172.348 24.7224C172.213 24.6004 172.1 24.4313 172.109 24.2431C172.11 24.011 172.112 23.7792 172.113 23.5475C172.102 23.3497 172.267 23.2073 172.401 23.0859C172.7 22.8466 173.101 22.8604 173.461 22.813C173.645 22.7866 173.889 22.8987 174.021 22.7167C174.067 22.5044 174.02 22.2535 173.842 22.1134C173.764 22.0455 173.654 22.0524 173.558 22.0508C173.205 22.0564 172.851 22.0495 172.499 22.058C172.437 22.0547 172.363 22.0679 172.32 22.0142C172.241 21.9384 172.299 21.8276 172.295 21.7353C172.31 21.6354 172.261 21.5177 172.33 21.433C172.421 21.3769 172.529 21.3585 172.633 21.342C172.791 21.3077 172.949 21.2721 173.111 21.2612M173.407 23.3368C173.255 23.3599 173.109 23.468 173.068 23.6197C173.037 23.7357 173.033 23.8577 173.041 23.9774C173.048 24.073 173.09 24.1785 173.183 24.2193C173.415 24.338 173.697 24.2826 173.924 24.1778C174.096 24.0895 174.067 23.8745 174.067 23.7136C174.063 23.5818 174.101 23.3919 173.944 23.3335C173.768 23.2907 173.585 23.3358 173.407 23.3368ZM176.611 21.3512C176.887 21.2161 177.2 21.2484 177.496 21.249C177.7 21.2609 177.911 21.2793 178.1 21.3631C178.237 21.4389 178.181 21.6103 178.192 21.7366C178.182 21.8342 178.22 21.9476 178.154 22.0313C178.103 22.0841 178.025 22.0725 177.959 22.0699C177.717 22.0468 177.473 22.0544 177.229 22.0551C177.051 22.0485 176.913 22.1856 176.831 22.3293C176.661 22.6079 176.756 22.9468 176.731 23.2537C176.708 23.5478 176.741 23.89 176.997 24.0802C177.169 24.2365 177.414 24.1804 177.625 24.1897C177.771 24.1963 177.912 24.1488 178.055 24.1303C178.132 24.1293 178.174 24.2137 178.182 24.2797C178.19 24.4307 178.197 24.5823 178.187 24.733C178.161 24.8714 178.006 24.9011 177.891 24.9301C177.693 24.9862 177.485 24.967 177.284 25.0007H177.241C177.172 24.9987 177.104 24.9782 177.034 24.9776C176.846 24.9796 176.67 24.9057 176.501 24.8352C176.153 24.6878 175.914 24.3506 175.824 23.9922C175.721 23.7021 175.759 23.3906 175.753 23.0889C175.757 22.8334 175.728 22.5713 175.802 22.3231C175.856 22.1484 175.906 21.9654 176.023 21.8197C176.185 21.6272 176.37 21.4406 176.611 21.3522V21.3512Z" fill="#005498"/>
</g>
<g clip-path="url(#clip4_2576_6282)">
<path d="M218.728 16.9619V16.6037H218.635L218.526 16.8498L218.418 16.6037H218.324V16.9619H218.391V16.6918L218.492 16.9249H218.561L218.662 16.6912V16.9619H218.728ZM218.134 16.9619V16.6648H218.254V16.6043H217.947V16.6648H218.068V16.9619H218.134Z" fill="#0099DF"/>
<path d="M208.071 18.502H199.959V3.97949H208.071V18.502Z" fill="#6C6BBD"/>
<path d="M200.479 11.2396C200.479 8.29361 201.864 5.66943 204.02 3.9783C202.443 2.74167 200.453 2.00356 198.291 2.00356C193.171 2.00356 189.021 6.1386 189.021 11.2396C189.021 16.3405 193.171 20.4756 198.291 20.4756C200.453 20.4756 202.443 19.7375 204.02 18.5008C201.864 16.8097 200.479 14.1855 200.479 11.2396Z" fill="#EB001B"/>
<path d="M219.011 11.2396C219.011 16.3405 214.861 20.4756 209.741 20.4756C207.579 20.4756 205.589 19.7375 204.011 18.5008C206.168 16.8097 207.553 14.1855 207.553 11.2396C207.553 8.29361 206.168 5.66943 204.011 3.9783C205.589 2.74167 207.579 2.00356 209.741 2.00356C214.861 2.00356 219.011 6.1386 219.011 11.2396Z" fill="#0099DF"/>
<path d="M210.807 22.6034C210.914 22.6034 211.069 22.624 211.188 22.6704L211.023 23.173C210.91 23.1266 210.797 23.1114 210.688 23.1114C210.338 23.1114 210.163 23.3368 210.163 23.742V25.1172H209.627V22.6651H210.158V22.9628C210.297 22.7473 210.498 22.6034 210.807 22.6034ZM208.827 23.1525H207.952V24.2605C207.952 24.5065 208.039 24.6709 208.307 24.6709C208.446 24.6709 208.621 24.6246 208.781 24.5324L208.935 24.9886C208.765 25.1066 208.498 25.1789 208.266 25.1789C207.632 25.1789 207.411 24.8401 207.411 24.2705V23.1525H206.911V22.6651H207.411V21.9211H207.952V22.6651H208.827V23.1525ZM201.973 23.6756C202.03 23.3216 202.245 23.0802 202.627 23.0802C202.972 23.0802 203.193 23.2957 203.25 23.6756H201.973ZM203.806 23.8911C203.801 23.1266 203.327 22.6034 202.637 22.6034C201.916 22.6034 201.411 23.1266 201.411 23.8911C201.411 24.6704 201.937 25.1783 202.673 25.1783C203.044 25.1783 203.384 25.0861 203.683 24.8348L203.42 24.4396C203.214 24.604 202.951 24.6962 202.704 24.6962C202.359 24.6962 202.045 24.5371 201.968 24.0961H203.796C203.801 24.0291 203.806 23.9628 203.806 23.8911ZM206.159 23.291C206.01 23.1983 205.707 23.0802 205.392 23.0802C205.099 23.0802 204.924 23.1883 204.924 23.368C204.924 23.5318 205.109 23.5782 205.341 23.6087L205.593 23.6445C206.129 23.722 206.453 23.9475 206.453 24.3785C206.453 24.8453 206.041 25.1789 205.331 25.1789C204.929 25.1789 204.558 25.0761 204.264 24.8606L204.517 24.4449C204.697 24.5835 204.965 24.7015 205.336 24.7015C205.701 24.7015 205.897 24.594 205.897 24.4038C205.897 24.2658 205.758 24.1883 205.464 24.1478L205.212 24.1119C204.661 24.0344 204.362 23.7884 204.362 23.3885C204.362 22.9011 204.764 22.6034 205.387 22.6034C205.779 22.6034 206.134 22.6909 206.391 22.86L206.159 23.291ZM212.764 23.1102C212.654 23.1102 212.552 23.1296 212.457 23.1677C212.363 23.2065 212.281 23.2605 212.212 23.3298C212.143 23.3991 212.089 23.4825 212.049 23.5793C212.01 23.6762 211.99 23.7831 211.99 23.8994C211.99 24.0162 212.01 24.1225 212.049 24.2194C212.089 24.3163 212.143 24.3997 212.212 24.469C212.281 24.5382 212.363 24.5923 212.457 24.631C212.552 24.6698 212.654 24.6886 212.764 24.6886C212.874 24.6886 212.977 24.6698 213.071 24.631C213.166 24.5923 213.249 24.5382 213.318 24.469C213.388 24.3997 213.442 24.3163 213.482 24.2194C213.522 24.1225 213.541 24.0162 213.541 23.8994C213.541 23.7831 213.522 23.6762 213.482 23.5793C213.442 23.4825 213.388 23.3991 213.318 23.3298C213.249 23.2605 213.166 23.2065 213.071 23.1677C212.977 23.1296 212.874 23.1102 212.764 23.1102ZM212.764 22.6034C212.955 22.6034 213.132 22.6363 213.295 22.7027C213.457 22.7684 213.598 22.8594 213.717 22.9751C213.836 23.0908 213.928 23.2276 213.995 23.385C214.063 23.5429 214.096 23.7144 214.096 23.8994C214.096 24.0843 214.063 24.2558 213.995 24.4138C213.928 24.5711 213.836 24.7085 213.717 24.8242C213.598 24.9399 213.457 25.0303 213.295 25.0967C213.132 25.1624 212.955 25.1953 212.764 25.1953C212.573 25.1953 212.396 25.1624 212.234 25.0967C212.071 25.0303 211.931 24.9399 211.813 24.8242C211.695 24.7085 211.603 24.5711 211.536 24.4138C211.468 24.2558 211.435 24.0843 211.435 23.8994C211.435 23.7144 211.468 23.5429 211.536 23.385C211.603 23.2276 211.695 23.0908 211.813 22.9751C211.931 22.8594 212.071 22.7684 212.234 22.7027C212.396 22.6363 212.573 22.6034 212.764 22.6034ZM198.844 23.8911C198.844 23.4601 199.127 23.1061 199.591 23.1061C200.033 23.1061 200.332 23.4449 200.332 23.8911C200.332 24.3374 200.033 24.6756 199.591 24.6756C199.127 24.6756 198.844 24.3222 198.844 23.8911ZM200.837 23.8911V22.6651H200.301V22.9628C200.131 22.742 199.874 22.6034 199.524 22.6034C198.834 22.6034 198.293 23.1419 198.293 23.8911C198.293 24.6398 198.834 25.1789 199.524 25.1789C199.874 25.1789 200.131 25.0403 200.301 24.8195V25.1172H200.837V23.8911ZM197.819 25.1172V23.5782C197.819 22.9986 197.449 22.6087 196.851 22.6034C196.537 22.5981 196.212 22.6956 195.986 23.0397C195.816 22.7678 195.548 22.6034 195.172 22.6034C194.91 22.6034 194.652 22.6804 194.451 22.9675V22.6651H193.916V25.1172H194.457V23.7579C194.457 23.3321 194.693 23.1061 195.059 23.1061C195.414 23.1061 195.595 23.3368 195.595 23.7526V25.1172H196.135V23.7579C196.135 23.3321 196.383 23.1061 196.738 23.1061C197.104 23.1061 197.279 23.3368 197.279 23.7526V25.1172H197.819Z" fill="#231F20"/>
<path d="M214.673 24.9337V24.9942H214.729C214.741 24.9942 214.752 24.9912 214.759 24.9865C214.767 24.9818 214.771 24.9736 214.771 24.9636C214.771 24.9537 214.767 24.946 214.759 24.9413C214.752 24.936 214.741 24.9337 214.729 24.9337H214.673ZM214.73 24.8914C214.758 24.8914 214.781 24.8979 214.797 24.9108C214.813 24.9237 214.82 24.9413 214.82 24.9636C214.82 24.9824 214.814 24.9977 214.802 25.01C214.789 25.0218 214.771 25.0294 214.748 25.0323L214.822 25.1175H214.764L214.695 25.0329H214.673V25.1175H214.625V24.8914H214.73ZM214.715 25.195C214.741 25.195 214.766 25.1903 214.789 25.1803C214.812 25.1703 214.832 25.1568 214.849 25.1398C214.866 25.1228 214.879 25.1028 214.889 25.0793C214.899 25.0564 214.904 25.0318 214.904 25.0053C214.904 24.9789 214.899 24.9543 214.889 24.9314C214.879 24.9084 214.866 24.8879 214.849 24.8709C214.832 24.8538 214.812 24.8403 214.789 24.8309C214.766 24.821 214.741 24.8163 214.715 24.8163C214.688 24.8163 214.663 24.821 214.64 24.8309C214.616 24.8403 214.596 24.8538 214.579 24.8709C214.562 24.8879 214.548 24.9084 214.539 24.9314C214.529 24.9543 214.524 24.9789 214.524 25.0053C214.524 25.0318 214.529 25.0564 214.539 25.0793C214.548 25.1028 214.562 25.1228 214.579 25.1398C214.596 25.1568 214.616 25.1703 214.64 25.1803C214.663 25.1903 214.688 25.195 214.715 25.195ZM214.715 24.7617C214.75 24.7617 214.781 24.7681 214.812 24.781C214.842 24.7934 214.868 24.811 214.891 24.8333C214.914 24.855 214.931 24.8809 214.944 24.9108C214.957 24.9402 214.964 24.9719 214.964 25.0053C214.964 25.0388 214.957 25.0705 214.944 25.0999C214.931 25.1292 214.914 25.1551 214.891 25.1768C214.868 25.1991 214.842 25.2167 214.812 25.2296C214.781 25.2426 214.75 25.249 214.715 25.249C214.68 25.249 214.647 25.2426 214.616 25.2296C214.586 25.2167 214.559 25.1991 214.537 25.1768C214.514 25.1551 214.497 25.1292 214.484 25.0999C214.471 25.0705 214.464 25.0388 214.464 25.0053C214.464 24.9719 214.471 24.9402 214.484 24.9108C214.497 24.8809 214.514 24.855 214.537 24.8333C214.559 24.811 214.586 24.7934 214.616 24.781C214.647 24.7681 214.68 24.7617 214.715 24.7617Z" fill="#231F20"/>
</g>
<g clip-path="url(#clip5_2576_6282)">
<path d="M227 7.76556C227 5.68706 228.634 4 230.645 4H270.359C272.37 4 274.005 5.68706 274.005 7.76556V21.2289C274.005 23.3074 272.376 24.9945 270.359 24.9945H230.645C228.634 25 227 23.3129 227 21.2344V7.76556Z" fill="#000268"/>
<path d="M228.497 7.89811V21.1079C228.497 22.409 229.515 23.462 230.773 23.462H251.577V5.54395H230.773C229.515 5.54395 228.497 6.59698 228.497 7.89811ZM256.957 14.4368C256.957 15.2804 256.559 15.8537 255.896 15.8537C255.312 15.8537 254.824 15.2748 254.824 14.503C254.824 13.7146 255.254 13.1247 255.896 13.1247C256.575 13.1302 256.957 13.7366 256.957 14.4368ZM253.063 19.2609H254.819V16.394H254.84C255.174 17.0225 255.838 17.2541 256.448 17.2541C257.96 17.2541 258.766 15.9585 258.766 14.3982C258.766 13.1192 257.997 11.7353 256.591 11.7353C255.79 11.7353 255.052 12.0716 254.697 12.8104H254.676V11.8566H253.057V19.2609H253.063ZM261.165 15.4568C261.165 14.9496 261.632 14.7566 262.226 14.7566C262.491 14.7566 262.741 14.7731 262.969 14.7842C262.969 15.4017 262.55 16.0302 261.886 16.0302C261.478 16.0357 261.165 15.8262 261.165 15.4568ZM264.709 17.1328C264.629 16.7193 264.614 16.3003 264.614 15.8868V13.9186C264.614 12.3087 263.494 11.7298 262.194 11.7298C261.446 11.7298 260.788 11.8401 260.167 12.1047L260.199 13.3397C260.687 13.053 261.25 12.9427 261.817 12.9427C262.449 12.9427 262.969 13.1357 262.979 13.8579C262.756 13.8193 262.443 13.7863 262.162 13.7863C261.228 13.7863 259.541 13.9792 259.541 15.5891C259.541 16.7359 260.438 17.2486 261.441 17.2486C262.162 17.2486 262.65 16.9564 263.048 16.2948H263.07C263.07 16.5705 263.096 16.8406 263.107 17.1273H264.709V17.1328ZM265.494 19.2609C265.855 19.3436 266.216 19.3822 266.587 19.3822C268.195 19.3822 268.577 18.0921 269.076 16.7689L270.938 11.8566H269.182L268.137 15.3024H268.121L267.028 11.8566H265.139L267.197 17.2596C267.07 17.7282 266.741 17.9874 266.311 17.9874C266.067 17.9874 265.855 17.9543 265.616 17.8771L265.494 19.2609Z" fill="white"/>
<path d="M232.783 14.4479C232.783 13.7257 233.123 13.1302 233.781 13.1302C234.571 13.1302 234.9 13.7863 234.9 14.3762C234.9 15.1867 234.402 15.7325 233.781 15.7325C233.25 15.7325 232.783 15.2694 232.783 14.4479ZM236.598 11.8512H235.007V12.805H234.991C234.619 12.1544 234.014 11.7299 233.266 11.7299C231.685 11.7299 230.974 12.9042 230.974 14.4755C230.974 16.0357 231.844 17.1329 233.234 17.1329C233.94 17.1329 234.524 16.8462 234.943 16.2287H234.964V16.5154C234.964 17.5464 234.418 18.0425 233.404 18.0425C232.672 18.0425 232.221 17.8827 231.685 17.607L231.595 19.046C232.003 19.2003 232.699 19.3823 233.537 19.3823C235.585 19.3823 236.598 18.6821 236.598 16.5154V11.8512ZM239.564 9.65137H237.808V10.9911H239.564V9.65137ZM237.808 17.1329H239.564V11.8512H237.808V17.1329ZM244.451 11.7905C244.276 11.7629 244.058 11.7299 243.857 11.7299C243.098 11.7299 242.658 12.1544 242.355 12.827H242.334V11.8567H240.737V17.1384H242.493V14.911C242.493 13.8745 242.955 13.257 243.772 13.257C243.979 13.257 244.17 13.257 244.366 13.3177L244.451 11.7905ZM247.475 15.9751C246.664 15.9751 246.335 15.2749 246.335 14.4975C246.335 13.7091 246.664 13.0089 247.475 13.0089C248.287 13.0089 248.616 13.7091 248.616 14.4975C248.616 15.2749 248.282 15.9751 247.475 15.9751ZM247.475 17.2541C249.152 17.2541 250.431 16.2397 250.431 14.4975C250.431 12.7443 249.152 11.7299 247.475 11.7299C245.799 11.7299 244.52 12.7443 244.52 14.4975C244.52 16.2397 245.793 17.2541 247.475 17.2541Z" fill="#FF0007"/>
</g>
<g clip-path="url(#clip6_2576_6282)">
<path d="M329.6 0H285.4C283.522 0 282 1.51104 282 3.375V23.625C282 25.489 283.522 27 285.4 27H329.6C331.478 27 333 25.489 333 23.625V3.375C333 1.51104 331.478 0 329.6 0Z" fill="white"/>
<path d="M296.558 9.64129H291.72C290.981 9.58153 290.238 9.69721 289.552 9.97879C289.125 10.2362 288.755 10.5762 288.463 10.9786C288.171 11.381 287.963 11.8375 287.852 12.321C287.765 12.5627 287.712 12.8156 287.696 13.072C287.685 13.265 287.724 13.4576 287.809 13.6314C287.925 13.8408 288.086 14.0222 288.281 14.1629C288.497 14.3237 288.74 14.4456 288.998 14.5232L289.317 14.6135L289.808 14.7561C289.887 14.7786 289.964 14.8103 290.035 14.8506C290.111 14.8925 290.173 14.9548 290.215 15.0303C290.242 15.0841 290.256 15.1432 290.258 15.2033C290.257 15.3233 290.222 15.4406 290.157 15.5416C290.091 15.6425 289.999 15.723 289.889 15.7737C289.617 15.8544 289.333 15.8873 289.049 15.8707H284.071L283.284 18.0147H288.611C289.395 18.0462 290.177 17.9199 290.911 17.6434C291.448 17.4149 291.919 17.0579 292.283 16.6042C292.646 16.1505 292.891 15.6144 292.995 15.0438C293.067 14.8185 293.093 14.581 293.072 14.3455C293.05 14.11 292.981 13.8812 292.868 13.6727C292.581 13.2707 292.151 12.9911 291.665 12.8897L291.382 12.8054L290.963 12.6864C290.827 12.6515 290.709 12.5672 290.633 12.4501C290.599 12.3943 290.577 12.3319 290.568 12.2671C290.56 12.2023 290.565 12.1364 290.584 12.0738C290.606 12.0031 290.641 11.9375 290.688 11.8808C290.736 11.8241 290.794 11.7775 290.861 11.7439C291.027 11.6604 291.213 11.6195 291.399 11.6249H294.496C294.517 11.5937 294.538 11.56 294.56 11.5279C295.09 10.7706 295.77 10.1286 296.558 9.64129Z" fill="#F48120"/>
<path d="M296.56 9.63153H291.723C290.983 9.57176 290.24 9.68745 289.555 9.96903C289.128 10.2262 288.757 10.5662 288.465 10.9686C288.173 11.371 287.966 11.8276 287.855 12.3113C287.767 12.5528 287.714 12.8057 287.699 13.0622C287.688 13.2552 287.726 13.4478 287.812 13.6216C287.927 13.8318 288.088 14.0137 288.283 14.154C288.5 14.3146 288.742 14.4365 289.001 14.5143L289.32 14.6054L289.807 14.7447C289.886 14.7676 289.962 14.7993 290.034 14.8392C290.109 14.8817 290.172 14.9445 290.213 15.0206C290.24 15.0743 290.255 15.1334 290.256 15.1935C290.255 15.3137 290.22 15.4313 290.155 15.5325C290.09 15.6338 289.997 15.7146 289.887 15.7656C289.615 15.8463 289.331 15.8792 289.048 15.8626H284.074L283.287 18.0057H288.617C289.399 18.0367 290.18 17.9104 290.912 17.6345C291.448 17.406 291.92 17.0489 292.284 16.5953C292.647 16.1416 292.892 15.6055 292.996 15.0349C293.068 14.8095 293.094 14.5721 293.072 14.3366C293.05 14.1012 292.981 13.8724 292.869 13.6638C292.583 13.262 292.154 12.9826 291.668 12.8817L291.385 12.7973L290.965 12.6783C290.829 12.6432 290.711 12.5586 290.635 12.4412C290.6 12.3854 290.578 12.323 290.57 12.2582C290.562 12.1933 290.567 12.1275 290.586 12.0649C290.607 11.9943 290.643 11.9287 290.69 11.872C290.738 11.8153 290.796 11.7687 290.862 11.735C291.029 11.6514 291.214 11.6105 291.401 11.616H294.499C294.52 11.5848 294.54 11.5511 294.562 11.519C295.092 10.7617 295.772 10.1194 296.56 9.63153Z" fill="#F48120"/>
<path d="M322.893 9.64648C323.056 9.77399 323.199 9.92468 323.318 10.0937C323.625 10.5455 323.75 11.0954 323.668 11.6344H325.221L322.88 18.0224H325.219L327.562 11.6344H330.566L331.296 9.64648H322.89H322.893Z" fill="#F48120"/>
<path d="M322.776 10.4683C322.391 9.91817 321.608 9.64902 320.382 9.64648H317.542L314.469 18.0207H317.078L318.195 15.0735C318.248 15.195 318.908 18.0207 318.908 18.0207H321.652C321.421 17.0331 321.131 16.0597 320.786 15.1055C320.696 14.8772 320.587 14.6566 320.461 14.4457C320.987 14.2779 321.47 13.9996 321.878 13.6298C322.285 13.2599 322.608 12.8073 322.824 12.3026C322.969 12.0165 323.041 11.699 323.033 11.3787C323.024 11.0583 322.936 10.7449 322.776 10.4666M320.505 12.317C320.411 12.6475 320.205 12.9357 319.921 13.1331C319.638 13.3304 319.295 13.4248 318.95 13.4003H318.504L319.262 11.3753H319.692C320.478 11.3753 320.772 11.604 320.505 12.317Z" fill="#F48120"/>
<path d="M301.31 10.4264C301.057 10.1104 300.727 9.8623 300.353 9.7045C299.978 9.54671 299.569 9.48425 299.164 9.52279C298.509 9.52493 297.863 9.67193 297.273 9.9531C296.362 10.402 295.583 11.0769 295.011 11.9123C294.578 12.5284 294.229 13.1988 293.973 13.9061C293.454 15.3177 293.463 16.4635 293.991 17.2169C294.248 17.5443 294.585 17.8018 294.969 17.9657C295.353 18.1295 295.773 18.1944 296.189 18.1543H296.193C298.511 18.1543 300.241 16.6466 301.338 13.6732C301.626 12.8851 302.007 11.4179 301.31 10.4264ZM298.83 13.7905C298.107 15.7556 297.581 16.2492 296.79 16.2492C296.025 16.2492 295.751 15.7648 296.47 13.8107C297.009 12.351 297.704 11.4179 298.548 11.4179C299.349 11.4179 299.533 11.8794 298.83 13.7905Z" fill="#F48120"/>
<path d="M310.571 9.64165H305.641C305.006 9.61298 304.38 9.79197 303.858 10.1511C303.336 10.5103 302.947 11.0297 302.751 11.6295L300.41 18.015H302.975L304.177 14.732H306.444L307.089 12.9728H304.83L305.194 11.9544C305.237 11.8534 305.31 11.768 305.404 11.7095C305.497 11.651 305.606 11.6222 305.717 11.627H308.39C308.411 11.5958 308.432 11.562 308.454 11.53C309.026 10.7669 309.745 10.1245 310.569 9.63996" fill="#F48120"/>
<path d="M315.297 10.4257C315.043 10.1093 314.714 9.86087 314.338 9.70306C313.963 9.54524 313.554 9.48303 313.148 9.52207C312.493 9.52433 311.847 9.67132 311.256 9.95239C310.345 10.4013 309.566 11.0762 308.995 11.9116C308.561 12.5279 308.212 13.1986 307.956 13.9062C307.436 15.3178 307.446 16.4636 307.974 17.2171C308.231 17.5446 308.568 17.8022 308.952 17.9661C309.337 18.13 309.757 18.1948 310.174 18.1545H310.178C312.495 18.1545 314.226 16.6467 315.32 13.6733C315.61 12.8853 315.993 11.418 315.294 10.4266M312.814 13.7906C312.09 15.7557 311.565 16.2493 310.774 16.2493C310.004 16.2493 309.735 15.765 310.455 13.8109C310.992 12.3512 311.688 11.418 312.531 11.418C313.332 11.418 313.516 11.8795 312.812 13.7906" fill="#F48120"/>
<path d="M322.896 9.6377C323.059 9.7652 323.202 9.91589 323.321 10.0849C323.628 10.5367 323.753 11.0866 323.671 11.6256H325.224L322.883 18.0136H325.222L327.565 11.6256H330.57L331.299 9.6377H322.895H322.896Z" fill="#F48120"/>
<path d="M322.779 10.4585C322.395 9.90841 321.611 9.63925 320.385 9.63672H317.541L314.47 18.0109H317.079L318.196 15.0637C318.25 15.1852 318.909 18.0109 318.909 18.0109H321.653C321.421 17.0232 321.132 16.0496 320.787 15.0949C320.697 14.8667 320.588 14.6461 320.463 14.4351C320.988 14.2673 321.472 13.989 321.879 13.6191C322.287 13.2493 322.61 12.7967 322.826 12.292C322.971 12.006 323.042 11.6889 323.034 11.3688C323.025 11.0487 322.937 10.7357 322.777 10.4577M320.508 12.3089C320.413 12.6394 320.207 12.9276 319.924 13.125C319.641 13.3223 319.297 13.4167 318.952 13.3923H318.507L319.263 11.3673H319.694C320.482 11.3673 320.776 11.5959 320.509 12.3089" fill="#F48120"/>
<path d="M301.313 10.4156C301.059 10.0997 300.73 9.85167 300.355 9.69389C299.98 9.53612 299.571 9.47359 299.166 9.51196C298.511 9.5141 297.865 9.6611 297.275 9.94227C296.363 10.3918 295.584 11.0672 295.013 11.9031C294.58 12.5203 294.23 13.1916 293.974 13.8995C293.455 15.3111 293.464 16.4569 293.992 17.2103C294.25 17.5374 294.586 17.7947 294.97 17.9585C295.354 18.1224 295.774 18.1874 296.19 18.1477H296.194C298.511 18.1477 300.242 16.64 301.339 13.6649C301.628 12.8794 302.011 11.4104 301.312 10.419M298.833 13.7796C298.109 15.7447 297.584 16.2383 296.793 16.2383C296.028 16.2383 295.754 15.754 296.474 13.7999C297.011 12.3402 297.707 11.407 298.551 11.407C299.352 11.407 299.536 11.8686 298.831 13.7796" fill="#F48120"/>
<path d="M310.575 9.63091H305.645C305.01 9.60223 304.384 9.78123 303.861 10.1404C303.339 10.4995 302.95 11.0189 302.755 11.6188L300.415 18.0043H302.979L304.182 14.7213H306.45L307.095 12.9637H304.835L305.198 11.9453C305.242 11.8444 305.315 11.759 305.408 11.7005C305.502 11.642 305.611 11.6132 305.721 11.6179H308.394C308.416 11.5867 308.435 11.553 308.458 11.5209C309.031 10.7581 309.75 10.1157 310.575 9.63091Z" fill="#F48120"/>
<path d="M315.298 10.416C315.044 10.0995 314.714 9.85097 314.338 9.69316C313.963 9.53534 313.553 9.4732 313.147 9.51238C312.493 9.51452 311.847 9.66153 311.256 9.9427C310.345 10.3922 309.566 11.0676 308.994 11.9036C308.564 12.5211 308.217 13.1923 307.962 13.8999C307.443 15.3115 307.452 16.4573 307.98 17.2108C308.238 17.5382 308.575 17.7957 308.959 17.9596C309.344 18.1234 309.764 18.1883 310.18 18.1482C312.497 18.1482 314.229 16.6404 315.323 13.6653C315.614 12.8798 315.995 11.4108 315.298 10.4194M312.818 13.7834C312.094 15.7485 311.571 16.2421 310.778 16.2421C310.008 16.2421 309.739 15.7578 310.458 13.8037C310.995 12.344 311.691 11.4108 312.534 11.4108C313.334 11.4108 313.518 11.8724 312.815 13.7834" fill="#F48120"/>
</g>
<defs>
<clipPath id="clip0_2576_6282">
<rect width="30" height="26.5193" fill="white" transform="translate(0 1)"/>
</clipPath>
<clipPath id="clip1_2576_6282">
<rect width="30" height="23.4483" fill="white" transform="translate(38 3)"/>
</clipPath>
<clipPath id="clip2_2576_6282">
<rect width="63" height="21" fill="white" transform="translate(76 4)"/>
</clipPath>
<clipPath id="clip3_2576_6282">
<rect width="34" height="21" fill="white" transform="translate(147 4)"/>
</clipPath>
<clipPath id="clip4_2576_6282">
<rect width="30" height="23.245" fill="white" transform="translate(189 2)"/>
</clipPath>
<clipPath id="clip5_2576_6282">
<rect width="47" height="21" fill="white" transform="translate(227 4)"/>
</clipPath>
<clipPath id="clip6_2576_6282">
<rect width="51" height="27" fill="white" transform="translate(282)"/>
</clipPath>
</defs>
</svg>
