<svg width="278" height="269" viewBox="0 0 278 269" fill="none" xmlns="http://www.w3.org/2000/svg">
<g clip-path="url(#clip0_1018_860)">
<mask id="mask0_1018_860" style="mask-type:luminance" maskUnits="userSpaceOnUse" x="0" y="0" width="278" height="269">
<path d="M278 0H0V269H278V0Z" fill="white"/>
</mask>
<g mask="url(#mask0_1018_860)">
<path d="M144.074 228.549C205.712 228.549 255.679 184.178 255.679 129.444C255.679 74.7092 205.712 30.3383 144.074 30.3383C82.4354 30.3383 32.4678 74.7092 32.4678 129.444C32.4678 184.178 82.4354 228.549 144.074 228.549Z" fill="#F9F9EF"/>
<path d="M7.99805 237.533L53.655 228.432L83.0783 248.657L74.9615 264.838C45.3499 258.003 30.8547 251.897 7.99805 237.533Z" fill="#EF3E27" stroke="#EF3E27"/>
<path d="M84.6164 249.834L139.59 263.766C120.872 267.768 106.383 268.308 76.5557 265.009L84.6164 249.834Z" fill="#F26922" stroke="#F26922"/>
<path d="M274.635 103.261C270.118 83.2718 261.013 64.5986 248.033 48.71C235.052 32.8214 218.55 20.1506 199.826 11.6936C181.101 3.23668 160.664 -0.775824 140.12 -0.0284016C119.577 0.719021 99.4869 6.206 81.4307 16.0011L104.098 57.5134C115.713 51.2127 128.635 47.6831 141.85 47.2024C155.064 46.7216 168.211 49.3026 180.255 54.7425C192.3 60.1823 202.914 68.3328 211.264 78.553C219.614 88.7734 225.47 100.785 228.376 113.643L274.635 103.261Z" fill="#E9E015"/>
<path d="M213.291 245.995C237.309 231.651 256.166 210.111 267.177 184.453C278.185 158.794 280.784 130.325 274.601 103.107L228.356 113.543C232.331 131.051 230.661 149.364 223.579 165.869C216.497 182.374 204.367 196.228 188.918 205.455L213.291 245.995Z" fill="#C6D22D"/>
<path d="M144.833 264.837C169.151 264.864 193.01 258.238 213.811 245.684L189.252 205.255C175.871 213.331 160.524 217.593 144.882 217.576L144.833 264.837Z" fill="#7FC042"/>
<path d="M83.1455 249.634C102.269 259.65 123.554 264.868 145.157 264.838L145.09 217.576C131.194 217.595 117.503 214.239 105.202 207.795L83.1455 249.634Z" fill="#F26922"/>
<path d="M81.4028 16.0165C64.0223 25.4505 48.9748 38.6341 37.3588 54.6046C25.7429 70.5753 17.8519 88.9298 14.2617 108.328L60.8924 116.902C63.2019 104.424 68.2777 92.6177 75.7494 82.3448C83.2213 72.0718 92.9006 63.5916 104.08 57.5231L81.4028 16.0165Z" fill="#FFC808"/>
<path d="M14.4089 107.548C10.9822 125.46 11.3025 143.885 15.3498 161.668L61.5924 151.213C58.9889 139.774 58.783 127.922 60.9873 116.4L14.4089 107.548Z" fill="#F58B1F"/>
<path d="M15.3291 161.573C18.6258 176.108 24.3591 189.984 32.288 202.618L72.488 177.553C67.388 169.427 63.7 160.501 61.5794 151.151L15.3291 161.573Z" fill="#F99D1C"/>
<path d="M31.9492 202.075C44.5775 222.414 62.4949 238.967 83.7999 249.974L105.623 208.016C91.9185 200.934 80.3933 190.287 72.2702 177.204L31.9492 202.075Z" fill="#EF3E27"/>
</g>
</g>
<defs>
<clipPath id="clip0_1018_860">
<rect width="278" height="269" fill="white"/>
</clipPath>
</defs>
</svg>
