<svg id="rocket" xmlns="http://www.w3.org/2000/svg" width="38" height="38" viewBox="0 0 38 38">
  <path id="Path_176" data-name="Path 176" d="M471.714,200.762a3.588,3.588,0,1,0-2.537,6.125h0a3.588,3.588,0,0,0,2.537-6.125Zm-1.427,3.647a1.559,1.559,0,0,1-1.11.46h0a1.57,1.57,0,1,1,1.11-.46Z" transform="translate(-443.095 -191.381)" fill="#222"/>
  <g id="Group_77" data-name="Group 77" transform="translate(0 23.251)">
    <path id="Path_177" data-name="Path 177" d="M44.35,487.655a1.009,1.009,0,0,1-.713-1.723l5.835-5.835a1.009,1.009,0,0,1,1.427,1.427l-5.835,5.835A1,1,0,0,1,44.35,487.655Z" transform="translate(-43.342 -479.802)" fill="#222"/>
  </g>
  <g id="Group_78" data-name="Group 78" transform="translate(1.305 28.595)">
    <path id="Path_178" data-name="Path 178" d="M68.84,588.222a1.009,1.009,0,0,1-.714-1.723l6.082-6.082a1.009,1.009,0,0,1,1.427,1.427l-6.082,6.082A1.006,1.006,0,0,1,68.84,588.222Z" transform="translate(-67.83 -580.122)" fill="#222"/>
  </g>
  <g id="Group_79" data-name="Group 79" transform="translate(6.895 30.147)">
    <path id="Path_179" data-name="Path 179" d="M173.791,617.1a1.009,1.009,0,0,1-.714-1.723l5.835-5.835a1.009,1.009,0,1,1,1.427,1.427L174.5,616.8A1.006,1.006,0,0,1,173.791,617.1Z" transform="translate(-172.782 -609.244)" fill="#222"/>
  </g>
  <path id="Path_180" data-name="Path 180" d="M117.689,43.635a1.009,1.009,0,0,0-.874-.283,37.325,37.325,0,0,0-6.726,1.935,40.9,40.9,0,0,0-6.314,3.041,33.3,33.3,0,0,0-6.387,4.894L89.767,54.7a1.01,1.01,0,0,0-.52.276l-6.9,6.882a1.009,1.009,0,0,0,.712,1.724,1.024,1.024,0,0,0,.193-.018l7.788-1.516q-.76,1.492-1.421,3.1a1.01,1.01,0,0,0,.22,1.1l1.908,1.908-1.772,1.772A1.009,1.009,0,0,0,91.4,71.354l1.772-1.772,1.908,1.908a1.009,1.009,0,0,0,1.1.22q1.605-.66,3.1-1.421l-1.516,7.788a1.009,1.009,0,0,0,1.7.905l6.882-6.9a1.011,1.011,0,0,0,.276-.52l1.483-7.621A33.312,33.312,0,0,0,113,57.549a40.95,40.95,0,0,0,3.041-6.314,37.347,37.347,0,0,0,1.934-6.726A1.01,1.01,0,0,0,117.689,43.635ZM86.113,60.954l4.341-4.327,4.671-.909a34.489,34.489,0,0,0-2.815,4.03ZM104.7,70.869l-4.327,4.341,1.206-6.2a34.431,34.431,0,0,0,4.03-2.815Zm9.437-20.306a34.994,34.994,0,0,1-7.577,12.068,31.208,31.208,0,0,1-6.333,4.839,1,1,0,0,0-.124.073,38.245,38.245,0,0,1-4.074,2.04L94.6,68.154l2.883-2.882a1.009,1.009,0,0,0-1.427-1.427l-2.882,2.882L91.741,65.3a38.267,38.267,0,0,1,2.041-4.075,1,1,0,0,0,.072-.122,31.2,31.2,0,0,1,4.84-6.334,34.994,34.994,0,0,1,12.067-7.577,40.108,40.108,0,0,1,4.906-1.534A40.147,40.147,0,0,1,114.132,50.563Z" transform="translate(-79.984 -43.339)" fill="#222"/>
</svg>
