<svg width="36" height="36" viewBox="0 0 36 36" fill="none" xmlns="http://www.w3.org/2000/svg">
<path fill-rule="evenodd" clip-rule="evenodd" d="M36 16.9953C36 24.9264 30.2588 31.5962 22.476 33.4774C21.3417 33.7553 20.1551 33.9264 18.951 33.9905C18.6369 33.9905 18.3228 34.0119 17.9913 34.0119C14.8502 34.0119 11.9186 33.2423 9.33592 31.9169L2.7746 36L4.10082 27.8124C1.53563 24.8836 0 21.0998 0 16.9953C0 7.61046 8.06205 0 17.9913 0C26.6117 0 33.8362 5.72922 35.5812 13.3824C35.8255 14.4299 35.9651 15.4988 36 16.6105C36 16.7387 36 16.867 36 16.9953ZM12.128 16.5891C12.128 14.8147 10.9588 13.3824 9.51042 13.3824C8.06205 13.3824 6.89287 14.8147 6.89287 16.5891C6.89287 18.3634 8.06205 19.7957 9.51042 19.7957C10.9588 19.7957 12.128 18.3634 12.128 16.5891ZM20.6088 16.5891C20.6088 14.8147 19.4397 13.3824 17.9913 13.3824C16.5429 13.3824 15.3737 14.8147 15.3737 16.5891C15.3737 18.3634 16.5429 19.7957 17.9913 19.7957C19.4397 19.7957 20.6088 18.3634 20.6088 16.5891ZM29.1071 16.5891C29.1071 14.8147 27.938 13.3824 26.4896 13.3824C25.0412 13.3824 23.872 14.8147 23.872 16.5891C23.872 18.3634 25.0412 19.7957 26.4896 19.7957C27.938 19.7957 29.1071 18.3634 29.1071 16.5891Z" fill="#00BAFF"/>
</svg>
