<svg width="36" height="37" viewBox="0 0 36 37" fill="none" xmlns="http://www.w3.org/2000/svg">
<path d="M18 35.9999C27.9759 35.9999 36 27.9758 36 17.9999C36 8.02397 27.9759 -0.00012207 18 -0.00012207C8.13257 -0.00012207 0 8.02397 0 17.9999C0 27.9758 8.13257 35.9999 18 35.9999Z" fill="#2CB5E5"/>
<path d="M7.48189 17.8915C7.48189 17.8915 16.4819 14.2048 19.6265 12.9036C20.8192 12.3614 24.9397 10.6265 24.9397 10.6265C24.9397 10.6265 26.7831 9.97585 26.5662 11.7108C26.5662 12.4698 26.1325 14.9638 25.6987 17.7831C25.0481 21.6867 24.3975 25.9156 24.3975 25.9156C24.3975 25.9156 24.2891 27.1084 23.4217 27.3252C22.5542 27.5421 21.1445 26.5662 20.8192 26.3493C20.6023 26.2409 16.9156 23.8554 15.6144 22.771C15.1807 22.4457 14.8554 21.7951 15.6144 21.0361C17.4578 19.3012 19.7349 17.2409 21.1445 15.8313C21.6867 15.2891 22.3373 13.771 19.7349 15.506C16.0481 18.1084 12.3614 20.4939 12.3614 20.4939C12.3614 20.4939 11.6024 21.0361 9.97585 20.4939C8.45778 20.0602 6.61443 19.4096 6.61443 19.4096C6.61443 19.4096 5.42165 18.6505 7.48189 17.8915Z" fill="white"/>
</svg>
