<svg width="36" height="37" viewBox="0 0 36 37" fill="none" xmlns="http://www.w3.org/2000/svg">
<g clip-path="url(#clip0_159_495)">
<path d="M36 18C36 27.9425 27.9425 36.0044 18 36.0044C8.05748 36.0044 0 27.9425 0 18C0 8.05748 8.05748 0 18 0C27.9425 0 36 8.05748 36 18Z" fill="#42BC74"/>
<path d="M27.5699 25.6454L26.4827 26.7282C26.4827 26.7282 21.9717 31.2436 13.5679 22.8398C4.73012 14.002 9.24108 9.48663 9.24108 9.48663L10.3283 8.40383C10.7842 7.94791 11.5207 7.94791 11.9766 8.40383L15.8519 12.2791C16.3078 12.7351 16.3078 13.4715 15.8519 13.9275L14.3176 15.4662C14.3176 15.4662 15.1154 17.4433 16.8996 19.2275C18.6882 21.0161 20.5075 21.6561 20.5075 21.6561L22.0419 20.1218C22.4978 19.6659 23.2386 19.6659 23.6946 20.1218L27.5699 23.9971C28.0258 24.4486 28.0258 25.1895 27.5699 25.6454Z" fill="white"/>
</g>
<defs>
<clipPath id="clip0_159_495">
<rect width="36" height="36" fill="white" transform="translate(0 0.119995)"/>
</clipPath>
</defs>
</svg>
