<svg width="36" height="37" viewBox="0 0 36 37" fill="none" xmlns="http://www.w3.org/2000/svg">
<g clip-path="url(#clip0_159_557)">
<path d="M8.18184 31.007V17.0977L3.86817 13.1514L0 10.9614V28.5523C0 29.9105 1.10039 31.007 2.45461 31.007H8.18184Z" fill="#4285F4"/>
<path d="M27.8181 31.0069H33.5454C34.9036 31.0069 36 29.9064 36 28.5523V10.9615L31.6186 13.4699L27.8181 17.0977V31.0069Z" fill="#34A853"/>
<path d="M8.18182 17.0977L7.59485 11.663L8.18182 6.46143L18 13.8251L27.8181 6.46143L28.4747 11.3822L27.8181 17.0977L18 24.4614L8.18182 17.0977Z" fill="#EA4335"/>
<path d="M27.8181 6.46133V17.0976L36 10.9613V7.68857C36 4.65318 32.535 2.92279 30.1092 4.74318L27.8181 6.46133Z" fill="#FBBC04"/>
<path d="M0 10.9614L3.76298 13.7837L8.18184 17.0977V6.4614L5.89078 4.74324C3.46078 2.92271 0 4.65324 0 7.68849V10.9614Z" fill="#C5221F"/>
</g>
<defs>
<clipPath id="clip0_159_557">
<rect width="36" height="27.1406" fill="white" transform="translate(0 3.99988)"/>
</clipPath>
</defs>
</svg>
