<svg width="37" height="37" viewBox="0 0 37 37" fill="none" xmlns="http://www.w3.org/2000/svg">
<path d="M18.7 17.4999C17.7 17.4999 17 16.6999 17 15.6999C17 14.7999 17.7 13.9999 18.7 13.9999C19.7 13.9999 20.5 14.7999 20.5 15.6999C20.5 16.6999 19.7 17.4999 18.7 17.4999Z" fill="#FF0000"/>
<path fill-rule="evenodd" clip-rule="evenodd" d="M37 17.9455C37 27.9515 28.9759 35.9999 19 35.9999C9.13254 35.9999 1 27.9515 1 17.9455C1 8.04821 9.13254 -0.00012207 19 -0.00012207C28.9759 -0.00012207 37 8.04821 37 17.9455ZM27.1326 15.9878C27.1326 11.5286 23.6626 8.04821 19.2169 8.04821C14.8795 8.04821 11.3012 11.5286 11.3012 15.9878C11.3012 19.1418 15.5301 24.5799 17.8072 27.299C18.5663 28.1691 19.8675 28.1691 20.6265 27.299C22.9036 24.5799 27.1326 19.1418 27.1326 15.9878Z" fill="#FF0000"/>
</svg>
