<svg xmlns="http://www.w3.org/2000/svg" version="1.1" xmlns:xlink="http://www.w3.org/1999/xlink" width="512" height="512" x="0" y="0" viewBox="0 0 512 512" style="enable-background:new 0 0 512 512" xml:space="preserve" class=""><g><path fill="#ffda44" d="M345.043 15.923C317.31 5.633 287.314 0 256 0s-61.31 5.633-89.043 15.923L144.696 256l22.261 240.077C194.69 506.368 224.686 512 256 512s61.31-5.632 89.043-15.923L367.304 256z" opacity="1" data-original="#ffda44"></path><path fill="#d80027" d="M512 256c0-110.07-69.472-203.906-166.957-240.076v480.155C442.528 459.906 512 366.072 512 256z" opacity="1" data-original="#d80027"></path><path d="M0 256c0 110.072 69.472 203.906 166.957 240.078V15.924C69.472 52.094 0 145.93 0 256z" fill="#000000" opacity="1" data-original="#000000" class=""></path></g></svg>