<?xml version="1.0" encoding="utf-8"?>
<!-- Generator: Adobe Illustrator 28.2.0, SVG Export Plug-In . SVG Version: 6.00 Build 0)  -->
<svg version="1.1" id="Laag_1" xmlns="http://www.w3.org/2000/svg" xmlns:xlink="http://www.w3.org/1999/xlink" x="0px" y="0px"
	 viewBox="0 0 21.2 21.2" style="enable-background:new 0 0 21.2 21.2;" xml:space="preserve">
<style type="text/css">
	.st0{fill:#E81C8C;}
</style>
<g>
	<path class="st0" d="M4.3,2.8c3.9-3.2,9.7-3,13.4,0.7c3.9,3.9,3.9,10.2,0,14.1s-10.2,3.9-14.1,0c-2.4-2.4-3.4-5.9-2.7-9.3L0.9,8
		l1.9,0.5c-1.1,4.3,1.4,8.6,5.7,9.8c4.3,1.1,8.6-1.4,9.8-5.7S16.9,4,12.6,2.8c-2.3-0.6-4.8-0.1-6.7,1.3L5.7,4.3l1,1L2.1,6.3l1.1-4.6
		L4.3,2.8L4.3,2.8z"/>
</g>
<g>
	<path d="M5.2,9.8H4V8.5h1.5c0.8-2.2,2.8-3.7,5.3-3.7c2.3,0,4.3,1.2,5.1,3.3h-2.2c-0.6-1.1-1.6-1.7-2.9-1.7C9.2,6.5,8,7.3,7.4,8.5
		h3.4v1.2H7c0,0.2,0,0.5,0,0.7s0,0.5,0,0.7h3.7v1.2H7.4c0.6,1.3,1.8,2.1,3.4,2.1c1.3,0,2.4-0.6,2.9-1.7h2.2
		c-0.8,2.2-2.8,3.3-5.1,3.3c-2.5,0-4.6-1.4-5.3-3.7H4v-1.2h1.2c0-0.2,0-0.5,0-0.7S5.1,10,5.2,9.8z"/>
</g>
</svg>
