<svg width="162" height="47" viewBox="0 0 162 47" fill="none" xmlns="http://www.w3.org/2000/svg">
<path d="M153.559 21.6573L146.83 18.0811C145.792 17.6549 146.064 19.3706 146.425 20.433L148.34 26.0743C148.655 27.3063 149.286 27.5187 150.455 27.0035C152.427 26.0748 153.491 25.3435 154.312 23.1313C154.473 22.1526 154.228 21.9797 153.559 21.6573Z" fill="#F48500"/>
<path d="M144.824 25.124L144.092 18.2357C143.884 17.2366 142.724 18.2969 142.101 19.1048L138.825 23.3495C138.056 24.2005 138.218 24.7857 139.203 25.4183C140.91 26.4561 142.005 26.9015 144.095 26.4276C144.916 26.0644 144.922 25.7926 144.824 25.124Z" fill="#43A047"/>
<path d="M137.175 19.0949L143.184 15.7924C144.018 15.2207 142.623 14.5521 141.649 14.2822L136.598 12.8819C135.541 12.4962 135.066 12.8686 134.85 14.0192C134.529 15.9909 134.524 17.1713 135.72 18.9191C136.352 19.5387 136.601 19.4403 137.175 19.0949Z" fill="#CF2C91"/>
<path d="M139.538 9.81505L143.867 13.5769C144.556 14.0658 144.678 12.778 144.608 11.9356L144.247 7.56645C144.245 6.62537 143.815 6.36088 142.85 6.52391C141.21 6.84177 140.282 7.17867 139.256 8.62258C138.952 9.29723 139.101 9.46485 139.538 9.81505Z" fill="#1F80FF"/>
<path d="M148.446 6.44898L145.897 12.9535C145.618 13.943 147.155 13.4944 148.08 13.0462L153.049 10.6387C154.143 10.2072 154.269 9.61155 153.672 8.61695C152.61 6.94588 151.827 6.07196 149.714 5.59346C148.801 5.56434 148.669 5.80601 148.446 6.44898Z" fill="#43A047"/>
<path d="M2.2365 39V16.635H12.4605C14.5053 16.635 16.2626 16.9651 17.7323 17.6254C19.2233 18.2857 20.3735 19.2442 21.1829 20.5009C21.9923 21.7363 22.397 23.206 22.397 24.91C22.397 26.5927 21.9923 28.0518 21.1829 29.2872C20.3735 30.5226 19.2233 31.4811 17.7323 32.1627C16.2626 32.823 14.5053 33.1531 12.4605 33.1531H5.751L8.5626 30.4054V39H2.2365ZM8.5626 31.0764L5.751 28.1689H12.0771C13.3977 28.1689 14.3775 27.8814 15.0165 27.3063C15.6768 26.7312 16.007 25.9324 16.007 24.91C16.007 23.8663 15.6768 23.0569 15.0165 22.4818C14.3775 21.9067 13.3977 21.6192 12.0771 21.6192H5.751L8.5626 18.7117V31.0764ZM35.6133 39V35.773L35.1979 34.9743V29.0316C35.1979 28.0731 34.8997 27.3382 34.3033 26.827C33.7282 26.2945 32.8017 26.0283 31.5237 26.0283C30.693 26.0283 29.8516 26.1667 28.9996 26.4436C28.1476 26.6992 27.4234 27.0613 26.827 27.5299L24.7822 23.4084C25.762 22.7694 26.9335 22.2795 28.2967 21.9387C29.6812 21.5766 31.0551 21.3955 32.4183 21.3955C35.2299 21.3955 37.4025 22.0452 38.9361 23.3445C40.491 24.6225 41.2684 26.6353 41.2684 29.383V39H35.6133ZM30.5013 39.2876C29.1168 39.2876 27.9453 39.0533 26.9868 38.5846C26.0283 38.116 25.2934 37.477 24.7822 36.6676C24.2923 35.8582 24.0474 34.953 24.0474 33.9519C24.0474 32.8869 24.3136 31.971 24.8461 31.2042C25.3999 30.4161 26.2413 29.8197 27.3702 29.415C28.4991 28.989 29.9581 28.776 31.7473 28.776H35.8369V31.939H32.578C31.5982 31.939 30.906 32.0988 30.5013 32.4183C30.1179 32.7378 29.9262 33.1638 29.9262 33.6963C29.9262 34.2288 30.1285 34.6548 30.5332 34.9743C30.9379 35.2938 31.4917 35.4535 32.1946 35.4535C32.8549 35.4535 33.4513 35.2938 33.9838 34.9743C34.5376 34.6335 34.9423 34.1223 35.1979 33.4407L36.0286 35.6772C35.7091 36.87 35.0808 37.7752 34.1436 38.3929C33.2277 38.9893 32.0136 39.2876 30.5013 39.2876ZM54.1687 39.2876C52.2517 39.2876 50.5371 38.9042 49.0248 38.1373C47.5338 37.3705 46.3623 36.3162 45.5103 34.9743C44.6583 33.6111 44.2323 32.0562 44.2323 30.3096C44.2323 28.563 44.6583 27.0187 45.5103 25.6768C46.3623 24.3349 47.5338 23.2912 49.0248 22.5457C50.5371 21.7789 52.2517 21.3955 54.1687 21.3955C56.1283 21.3955 57.8217 21.8109 59.2488 22.6416C60.6759 23.4723 61.6876 24.6438 62.284 26.1561L57.5874 28.5523C57.1827 27.7429 56.6821 27.1572 56.0857 26.7951C55.4893 26.4117 54.8397 26.22 54.1368 26.22C53.4339 26.22 52.7949 26.3797 52.2198 26.6992C51.6447 27.0187 51.1867 27.4873 50.8459 28.105C50.5264 28.7014 50.3667 29.4363 50.3667 30.3096C50.3667 31.2042 50.5264 31.9603 50.8459 32.578C51.1867 33.1957 51.6447 33.6643 52.2198 33.9838C52.7949 34.3033 53.4339 34.4631 54.1368 34.4631C54.8397 34.4631 55.4893 34.282 56.0857 33.9199C56.6821 33.5365 57.1827 32.9401 57.5874 32.1307L62.284 34.527C61.6876 36.0393 60.6759 37.2108 59.2488 38.0415C57.8217 38.8722 56.1283 39.2876 54.1687 39.2876ZM65.2726 39V21.8748C65.2726 19.7874 65.8903 18.126 67.1257 16.8906C68.3824 15.6339 70.1716 15.0055 72.4933 15.0055C73.2388 15.0055 73.9737 15.0801 74.6979 15.2292C75.4221 15.3783 76.0291 15.6019 76.519 15.9001L75.0174 20.1814C74.7618 20.0323 74.4742 19.9152 74.1547 19.83C73.8352 19.7235 73.5157 19.6702 73.1962 19.6702C72.5572 19.6702 72.0567 19.8619 71.6946 20.2453C71.3538 20.6074 71.1834 21.1719 71.1834 21.9387V23.1847L71.3431 25.7088V39H65.2726ZM62.7486 26.859V22.3221H75.3049V26.859H62.7486ZM84.834 39.2876C83.4282 39.2876 82.1608 39.0107 81.0319 38.4568C79.9243 37.903 79.051 37.0404 78.412 35.8689C77.7943 34.6761 77.4855 33.1744 77.4855 31.3639V21.6831H83.556V30.3735C83.556 31.7154 83.8009 32.6739 84.2908 33.249C84.802 33.8241 85.5156 34.1116 86.4315 34.1116C87.0279 34.1116 87.571 33.9732 88.0609 33.6963C88.5508 33.4194 88.9449 32.9827 89.2431 32.3863C89.5413 31.7686 89.6904 30.9805 89.6904 30.022V21.6831H95.7609V39H89.9779V34.1116L91.0962 35.4855C90.4998 36.7635 89.6371 37.722 88.5082 38.361C87.3793 38.9787 86.1546 39.2876 84.834 39.2876ZM99.671 39V15.2931H105.742V39H99.671ZM109.687 39V15.2931H115.757V39H109.687ZM122.674 45.4859C121.758 45.4859 120.831 45.3368 119.894 45.0386C118.978 44.7617 118.232 44.3889 117.657 43.9203L119.766 39.671C120.128 39.9905 120.544 40.2354 121.012 40.4058C121.502 40.5975 121.981 40.6934 122.45 40.6934C123.11 40.6934 123.632 40.5443 124.015 40.2461C124.399 39.9479 124.729 39.4793 125.006 38.8402L125.805 36.8274L126.284 36.2203L132.163 21.6831H137.946L130.469 39.7029C129.873 41.1939 129.181 42.3548 128.393 43.1855C127.626 44.0375 126.763 44.6339 125.805 44.9747C124.867 45.3155 123.824 45.4859 122.674 45.4859ZM125.038 39.7349L117.402 21.6831H123.632L129.255 35.6772L125.038 39.7349Z" fill="black"/>
</svg>
