<svg id="Group_791" data-name="Group 791" xmlns="http://www.w3.org/2000/svg" xmlns:xlink="http://www.w3.org/1999/xlink" width="40" height="30" viewBox="0 0 40 30">
  <defs>
    <clipPath id="clip-path">
      <rect id="Rectangle_955" data-name="Rectangle 955" width="40" height="30" fill="none"/>
    </clipPath>
    <clipPath id="clip-path-3">
      <rect id="Rectangle_953" data-name="Rectangle 953" width="5.161" height="10.436" fill="none"/>
    </clipPath>
  </defs>
  <g id="Group_790" data-name="Group 790" clip-path="url(#clip-path)">
    <g id="Group_789" data-name="Group 789">
      <g id="Group_788" data-name="Group 788" clip-path="url(#clip-path)">
        <path id="Path_393" data-name="Path 393" d="M5.036.5H34.714A4.565,4.565,0,0,1,39.25,5.092V24.658a4.565,4.565,0,0,1-4.536,4.592H5.036A4.565,4.565,0,0,1,.5,24.658V5.092A4.565,4.565,0,0,1,5.036.5" transform="translate(0.125 0.125)" fill="#fff"/>
        <path id="Path_394" data-name="Path 394" d="M5.036.5H34.714A4.565,4.565,0,0,1,39.25,5.092V24.658a4.565,4.565,0,0,1-4.536,4.592H5.036A4.565,4.565,0,0,1,.5,24.658V5.092A4.565,4.565,0,0,1,5.036.5Z" transform="translate(0.125 0.125)" fill="none" stroke="#e6e6e6" stroke-width="1"/>
        <path id="Path_395" data-name="Path 395" d="M14.193,19.826A6.522,6.522,0,1,0,7.742,13.3a6.486,6.486,0,0,0,6.451,6.521" transform="translate(1.936 1.696)" fill="#e7001a"/>
        <path id="Path_396" data-name="Path 396" d="M20.387,19.826A6.522,6.522,0,1,0,13.936,13.3a6.486,6.486,0,0,0,6.451,6.521" transform="translate(3.484 1.696)" fill="#f49b1c"/>
        <g id="Group_787" data-name="Group 787" transform="translate(17.419 9.782)" opacity="0.3" style="mix-blend-mode: normal;isolation: isolate">
          <g id="Group_786" data-name="Group 786">
            <g id="Group_785" data-name="Group 785" clip-path="url(#clip-path-3)">
              <path id="Path_397" data-name="Path 397" d="M16.516,7.826a6.565,6.565,0,0,1,0,10.436,6.565,6.565,0,0,1,0-10.436" transform="translate(-13.936 -7.826)" fill="#e7001a" fill-rule="evenodd"/>
            </g>
          </g>
        </g>
      </g>
    </g>
  </g>
</svg>
