<svg id="Group_782" data-name="Group 782" xmlns="http://www.w3.org/2000/svg" xmlns:xlink="http://www.w3.org/1999/xlink" width="40" height="30" viewBox="0 0 40 30">
  <defs>
    <clipPath id="clip-path">
      <rect id="Rectangle_951" data-name="Rectangle 951" width="40" height="30" fill="none"/>
    </clipPath>
    <clipPath id="clip-path-3">
      <rect id="Rectangle_949" data-name="Rectangle 949" width="5.161" height="10.436" fill="none"/>
    </clipPath>
  </defs>
  <g id="Group_781" data-name="Group 781" clip-path="url(#clip-path)">
    <g id="Group_780" data-name="Group 780">
      <g id="Group_779" data-name="Group 779" clip-path="url(#clip-path)">
        <path id="Path_386" data-name="Path 386" d="M5.036.5H34.714A4.565,4.565,0,0,1,39.25,5.092V24.658a4.565,4.565,0,0,1-4.536,4.592H5.036A4.565,4.565,0,0,1,.5,24.658V5.092A4.565,4.565,0,0,1,5.036.5" transform="translate(0.125 0.125)" fill="#fff"/>
        <path id="Path_387" data-name="Path 387" d="M5.036.5H34.714A4.565,4.565,0,0,1,39.25,5.092V24.658a4.565,4.565,0,0,1-4.536,4.592H5.036A4.565,4.565,0,0,1,.5,24.658V5.092A4.565,4.565,0,0,1,5.036.5Z" transform="translate(0.125 0.125)" fill="none" stroke="#e6e6e6" stroke-width="1"/>
        <path id="Path_388" data-name="Path 388" d="M14.193,19.826A6.522,6.522,0,1,0,7.742,13.3a6.486,6.486,0,0,0,6.451,6.521" transform="translate(1.936 1.696)" fill="#e7001a"/>
        <path id="Path_389" data-name="Path 389" d="M20.387,19.826A6.522,6.522,0,1,0,13.936,13.3a6.486,6.486,0,0,0,6.451,6.521" transform="translate(3.484 1.696)" fill="#00a2e1"/>
        <g id="Group_778" data-name="Group 778" transform="translate(17.419 9.782)" opacity="0.3" style="mix-blend-mode: normal;isolation: isolate">
          <g id="Group_777" data-name="Group 777">
            <g id="Group_776" data-name="Group 776" clip-path="url(#clip-path-3)">
              <path id="Path_390" data-name="Path 390" d="M16.516,7.826a6.565,6.565,0,0,1,0,10.436,6.565,6.565,0,0,1,0-10.436" transform="translate(-13.936 -7.826)" fill="#e7001a" fill-rule="evenodd"/>
            </g>
          </g>
        </g>
      </g>
    </g>
  </g>
</svg>
