<svg id="Group_799" data-name="Group 799" xmlns="http://www.w3.org/2000/svg" xmlns:xlink="http://www.w3.org/1999/xlink" width="40" height="30" viewBox="0 0 40 30">
  <defs>
    <clipPath id="clip-path">
      <rect id="Rectangle_959" data-name="Rectangle 959" width="40" height="30" fill="none"/>
    </clipPath>
  </defs>
  <g id="Group_798" data-name="Group 798" clip-path="url(#clip-path)">
    <path id="Path_414" data-name="Path 414" d="M35,0H5A5,5,0,0,0,0,5V25a5,5,0,0,0,5,5H35a5,5,0,0,0,5-5V5a5,5,0,0,0-5-5" fill="#27337a"/>
    <path id="Path_415" data-name="Path 415" d="M19.661,11.164c-.017,1.451,1.252,2.261,2.21,2.743.984.494,1.314.81,1.31,1.252-.008.675-.785.974-1.511.985a5.13,5.13,0,0,1-2.594-.636l-.456,2.208a7.375,7.375,0,0,0,2.807.535c2.651,0,4.386-1.351,4.4-3.446.01-2.659-3.564-2.806-3.539-4,.009-.36.341-.745,1.071-.842a4.628,4.628,0,0,1,2.49.45l.444-2.135a6.577,6.577,0,0,0-2.363-.448c-2.5,0-4.252,1.369-4.266,3.33M30.555,8.018a1.152,1.152,0,0,0-1.075.739l-3.788,9.338h2.65l.527-1.5h3.237l.306,1.5H34.75L32.711,8.018Zm.37,2.721.765,3.784H29.6ZM16.449,8.018l-2.09,10.076h2.526L18.972,8.018Zm-3.736,0-2.629,6.858L9.021,9.044A1.189,1.189,0,0,0,7.856,8.018H3.56L3.5,8.31a10.288,10.288,0,0,1,2.491.858,1.1,1.1,0,0,1,.6.885L8.6,18.094h2.669L15.364,8.018Z" transform="translate(0.875 1.958)" fill="#fff"/>
  </g>
</svg>
